<svg width="545" height="135" viewBox="0 0 545 135" fill="none" xmlns="http://www.w3.org/2000/svg">
<path d="M82.3918 39C78.6851 39 75.0851 38.3467 71.5918 37.04C68.1251 35.76 64.6851 34.1467 61.2718 32.2C59.8318 31.3733 58.3918 30.5067 56.9518 29.6C55.5385 28.6933 54.1251 27.7733 52.7118 26.84C51.3251 28.1733 49.8851 29.2533 48.3918 30.08C46.9251 30.9067 45.4051 31.32 43.8318 31.32C42.7918 31.32 41.6185 31.08 40.3118 30.6C39.0318 30.1467 37.9518 29.5067 37.0718 28.68C36.3518 27.9867 35.6985 27.2133 35.1118 26.36C34.5518 25.48 34.0851 24.6133 33.7118 23.76C33.3651 22.9067 33.1251 22.1733 32.9918 21.56C32.8318 20.7067 32.7518 19.96 32.7518 19.32C32.7518 18.0133 33.0318 17.0933 33.5918 16.56C34.1785 16 34.9251 15.72 35.8318 15.72C36.6051 15.72 37.4451 15.8933 38.3518 16.24C39.2585 16.56 40.1518 16.9867 41.0318 17.52C42.8985 18.64 44.7385 19.8133 46.5518 21.04C48.3651 22.2667 50.1651 23.48 51.9518 24.68C52.6185 23.96 53.2718 23.1867 53.9118 22.36C54.5518 21.5333 55.1918 20.7067 55.8318 19.88C54.3118 19.72 52.9385 19.2667 51.7118 18.52C50.4851 17.7467 49.4985 16.72 48.7518 15.44C48.0318 14.1333 47.6718 12.64 47.6718 10.96C47.6718 9.92 47.8851 8.90667 48.3118 7.92C48.7651 6.90667 49.3785 6 50.1518 5.2C50.9251 4.37333 51.7918 3.72 52.7518 3.24C53.7385 2.76 54.7651 2.52 55.8318 2.52C56.7385 2.52 57.6718 2.74667 58.6318 3.2C59.0051 3.38667 59.1918 3.6 59.1918 3.84C59.1918 4.10667 59.0185 4.24 58.6718 4.24C58.5385 4.24 58.4318 4.21333 58.3518 4.16C57.8451 3.86667 57.3118 3.72 56.7518 3.72C55.8451 3.72 54.8985 3.98667 53.9118 4.52C52.9251 5.02667 52.0451 5.74667 51.2718 6.68C50.5251 7.61333 50.0318 8.72 49.7918 10C49.7385 10.2933 49.6985 10.5867 49.6718 10.88C49.6451 11.1733 49.6318 11.4667 49.6318 11.76C49.6318 13.8133 50.2585 15.4933 51.5118 16.8C52.7918 18.1067 54.4718 18.7733 56.5518 18.8C57.3251 17.76 57.9785 16.7867 58.5118 15.88C59.6051 14.1733 60.6318 12.4267 61.5918 10.64C62.5518 8.82667 63.5518 7.18667 64.5918 5.72C65.6318 4.25333 66.7785 3.04 68.0318 2.08C69.3118 1.12 70.7918 0.639999 72.4718 0.639999C73.2451 0.639999 73.8051 0.906666 74.1518 1.44C74.4985 1.97333 74.6718 2.52 74.6718 3.08C74.6718 4.33333 74.3651 5.68 73.7518 7.12C73.1651 8.53333 72.3385 9.94667 71.2718 11.36C70.2051 12.7467 68.9785 14.04 67.5918 15.24C66.2318 16.4133 64.7651 17.4133 63.1918 18.24C61.6185 19.04 60.0318 19.56 58.4318 19.8C57.6851 20.8667 56.9118 21.92 56.1118 22.96C55.3385 23.9733 54.5251 24.9333 53.6718 25.84C54.8451 26.64 56.0185 27.4133 57.1918 28.16C58.3651 28.9333 59.5518 29.6667 60.7518 30.36C64.0585 32.3067 67.4451 33.9067 70.9118 35.16C74.4051 36.44 78.1118 37.08 82.0318 37.08C82.8318 37.08 83.7118 36.9867 84.6718 36.8C85.6318 36.6133 86.5518 36.3067 87.4318 35.88C88.3385 35.4533 89.0718 34.88 89.6318 34.16C90.2185 33.4667 90.5118 32.5867 90.5118 31.52C90.5118 30.8267 90.4051 30.1867 90.1918 29.6C90.0051 29.0133 89.7518 28.4667 89.4318 27.96C89.3518 27.8 89.3118 27.68 89.3118 27.6C89.3118 27.4667 89.3785 27.3733 89.5118 27.32C89.5385 27.32 89.5518 27.32 89.5518 27.32C89.5785 27.2933 89.6051 27.28 89.6318 27.28C89.7385 27.28 89.8318 27.32 89.9118 27.4C90.0185 27.4533 90.1118 27.5067 90.1918 27.56C90.8051 28.04 91.2051 28.6667 91.3918 29.44C91.6051 30.24 91.7118 30.92 91.7118 31.48C91.7118 33.9333 90.8985 35.8 89.2718 37.08C87.6718 38.36 85.3785 39 82.3918 39ZM59.3518 18.4C60.8451 17.9733 62.2718 17.28 63.6318 16.32C65.0185 15.36 66.2851 14.2533 67.4318 13C68.6051 11.7467 69.6185 10.48 70.4718 9.2C71.3251 7.92 71.9518 6.76 72.3518 5.72C72.4318 5.50667 72.5251 5.16 72.6318 4.68C72.7651 4.2 72.8318 3.73333 72.8318 3.28C72.8318 2.85333 72.7518 2.50667 72.5918 2.24C72.4585 1.97333 72.2185 1.84 71.8718 1.84C71.1251 1.78667 70.4318 2.02667 69.7918 2.56C69.1785 3.06667 68.6051 3.66667 68.0718 4.36C67.4051 5.18667 66.7518 6.09333 66.1118 7.08C65.4985 8.04 64.8851 9.02667 64.2718 10.04L59.3518 18.4ZM39.6318 29C40.2451 29.2933 40.8451 29.5067 41.4318 29.64C42.0185 29.7733 42.5918 29.84 43.1518 29.84C44.5918 29.84 45.9518 29.4533 47.2318 28.68C48.5385 27.9067 49.7918 26.9067 50.9918 25.68C49.2851 24.56 47.5651 23.4533 45.8318 22.36C44.1251 21.24 42.3918 20.1467 40.6318 19.08C39.9385 18.6533 39.2851 18.36 38.6718 18.2C38.0585 18.0133 37.4985 17.92 36.9918 17.92C36.1651 17.92 35.5251 18.1467 35.0718 18.6C34.6451 19.0533 34.4851 19.64 34.5918 20.36C34.8051 21.64 35.1651 22.96 35.6718 24.32C36.2051 25.6533 36.9785 26.8267 37.9918 27.84C38.2051 28.0533 38.4451 28.2533 38.7118 28.44C38.9785 28.6533 39.2851 28.84 39.6318 29ZM81.268 28.44C79.988 28.44 79.108 28.16 78.628 27.6C78.148 27.04 77.908 26.3467 77.908 25.52C77.908 25.12 77.9614 24.7067 78.068 24.28C78.1747 23.8267 78.2947 23.4 78.428 23C78.0014 23.4533 77.4814 23.9733 76.868 24.56C76.2814 25.1467 75.628 25.72 74.908 26.28C74.2147 26.84 73.5214 27.3067 72.828 27.68C72.1347 28.0267 71.468 28.2 70.828 28.2C70.028 28.2 69.3747 27.8533 68.868 27.16C68.548 26.68 68.388 26.1867 68.388 25.68C68.388 25.0667 68.548 24.48 68.868 23.92C69.2147 23.3333 69.6014 22.7733 70.028 22.24C70.4814 21.68 70.868 21.1733 71.188 20.72C71.8014 19.8133 72.3214 18.9467 72.748 18.12C73.1747 17.2933 73.388 16.6267 73.388 16.12C73.388 15.8267 73.2947 15.6 73.108 15.44C72.788 15.2 72.628 14.92 72.628 14.6C72.628 14.3867 72.748 14.28 72.988 14.28C73.148 14.28 73.348 14.36 73.588 14.52C73.7747 14.6267 73.9747 14.7733 74.188 14.96C74.4014 15.1467 74.6014 15.36 74.788 15.6C74.8947 15.7067 74.988 15.8133 75.068 15.92C75.148 16.0267 75.228 16.1333 75.308 16.24C75.3614 16.3733 75.4147 16.52 75.468 16.68C75.5214 16.8133 75.548 16.9733 75.548 17.16C75.548 17.5867 75.4014 18.0533 75.108 18.56C74.8147 19.0667 74.4414 19.6133 73.988 20.2C73.5614 20.7867 73.108 21.3867 72.628 22C72.4147 22.2667 72.0814 22.72 71.628 23.36C71.2014 23.9733 70.8147 24.5867 70.468 25.2C70.308 25.52 70.1614 25.8133 70.028 26.08C69.9214 26.3467 69.868 26.5867 69.868 26.8C69.868 27.1467 70.068 27.32 70.468 27.32C70.8414 27.32 71.2947 27.1733 71.828 26.88C72.388 26.56 72.9214 26.2133 73.428 25.84C73.9347 25.44 74.308 25.1467 74.548 24.96C75.4014 24.24 76.2814 23.4933 77.188 22.72C78.1214 21.92 79.0147 21.16 79.868 20.44C80.0014 20.3333 80.1747 20.28 80.388 20.28C80.7614 20.28 81.0547 20.3867 81.268 20.6C81.3747 20.68 81.428 20.8267 81.428 21.04C81.428 21.4667 81.2147 22.08 80.788 22.88C80.6814 23.12 80.5614 23.3733 80.428 23.64C80.2947 23.88 80.1747 24.1333 80.068 24.4C79.9614 24.6667 79.8547 24.92 79.748 25.16C79.668 25.4 79.6147 25.64 79.588 25.88C79.5614 25.96 79.548 26.04 79.548 26.12C79.548 26.2 79.548 26.28 79.548 26.36C79.548 26.7867 79.668 27.08 79.908 27.24C80.148 27.3733 80.4414 27.44 80.788 27.44C81.2947 27.44 81.8147 27.36 82.348 27.2C82.908 27.0133 83.3614 26.8667 83.708 26.76C85.068 26.2267 86.4414 25.5067 87.828 24.6C89.2414 23.6933 90.508 22.7867 91.628 21.88C91.8947 21.64 92.148 21.4267 92.388 21.24C92.6547 21.0533 92.9214 20.8267 93.188 20.56C93.3747 20.3733 93.5214 20.2667 93.628 20.24H93.708C93.9214 20.24 93.988 20.36 93.908 20.6C93.8547 20.8133 93.748 21.0267 93.588 21.24C93.348 21.64 92.908 22.1467 92.268 22.76C91.628 23.3467 90.8547 23.9733 89.948 24.64C89.068 25.28 88.1214 25.8933 87.108 26.48C86.0947 27.0667 85.0814 27.5467 84.068 27.92C83.0547 28.2667 82.1214 28.44 81.268 28.44ZM89.0955 29.24C88.6422 29.24 88.4155 29.0267 88.4155 28.6C88.4155 28.3333 88.4822 28.04 88.6155 27.72C88.7755 27.4 88.9622 27.0533 89.1755 26.68C89.5222 26.0667 89.9222 25.4267 90.3755 24.76C90.8289 24.0933 91.2022 23.5467 91.4955 23.12C91.7622 22.7733 92.1355 22.28 92.6155 21.64C93.1222 21 93.5755 20.32 93.9755 19.6C94.2689 19.1467 94.4955 18.72 94.6555 18.32C94.8155 17.8933 94.8955 17.52 94.8955 17.2C94.8955 16.8533 94.7755 16.5867 94.5355 16.4C94.2155 16.16 94.0555 15.88 94.0555 15.56C94.0555 15.3467 94.1755 15.24 94.4155 15.24C94.5755 15.24 94.7755 15.32 95.0155 15.48C95.2022 15.5867 95.4022 15.7333 95.6155 15.92C95.8555 16.1067 96.0689 16.32 96.2555 16.56C96.3355 16.6667 96.4155 16.7733 96.4955 16.88C96.5755 16.96 96.6555 17.0667 96.7355 17.2C96.8955 17.4667 96.9755 17.7733 96.9755 18.12C96.9755 18.5467 96.8289 19 96.5355 19.48C96.0555 20.3067 95.4822 21.08 94.8155 21.8C94.1755 22.4933 93.5355 23.1867 92.8955 23.88C93.7755 23.0533 94.6955 22.2267 95.6555 21.4C96.6422 20.5733 97.5489 19.88 98.3755 19.32C99.2289 18.7333 99.9089 18.4267 100.416 18.4C100.522 18.3733 100.616 18.36 100.696 18.36C100.802 18.36 100.896 18.36 100.976 18.36C101.749 18.36 102.282 18.5733 102.576 19C102.709 19.2133 102.789 19.4533 102.816 19.72C102.842 19.96 102.856 20.2 102.856 20.44C102.856 20.8133 102.762 21.28 102.576 21.84C102.416 22.3733 102.229 22.9067 102.016 23.44C101.909 23.7067 101.802 23.96 101.696 24.2C101.589 24.44 101.496 24.6667 101.416 24.88C101.549 24.72 101.682 24.5467 101.816 24.36C101.976 24.1733 102.122 23.9867 102.256 23.8C102.602 23.3733 102.949 22.9467 103.296 22.52C103.669 22.0933 104.016 21.7467 104.336 21.48C104.896 21 105.349 20.76 105.696 20.76C105.802 20.76 105.909 20.7867 106.016 20.84C106.149 20.9467 106.242 21.0933 106.296 21.28C106.376 21.44 106.429 21.6 106.456 21.76C106.509 22 106.562 22.3067 106.616 22.68C106.696 23.0533 106.802 23.4667 106.936 23.92C107.069 24.3467 107.242 24.7733 107.456 25.2C107.696 25.6267 107.989 25.9867 108.336 26.28C108.629 26.5733 109.109 26.72 109.776 26.72C110.309 26.72 110.869 26.64 111.456 26.48C112.042 26.32 112.549 26.1333 112.976 25.92C114.069 25.3867 115.136 24.7467 116.176 24C117.216 23.2533 118.282 22.44 119.376 21.56L121.856 19.52C122.069 19.36 122.242 19.28 122.376 19.28C122.509 19.28 122.589 19.3067 122.616 19.36V19.44C122.616 19.52 122.602 19.6133 122.576 19.72C122.549 19.8267 122.482 19.9467 122.376 20.08C122.189 20.3467 121.909 20.6933 121.536 21.12C121.162 21.5467 120.696 22 120.136 22.48C119.522 22.9867 118.789 23.56 117.936 24.2C117.082 24.84 116.176 25.4533 115.216 26.04C114.282 26.6267 113.336 27.12 112.376 27.52C111.869 27.7067 111.376 27.8667 110.896 28C110.416 28.1333 109.949 28.2 109.496 28.2C108.456 28.2 107.629 27.9733 107.016 27.52C106.429 27.04 105.962 26.48 105.616 25.84C105.456 25.5467 105.309 25.24 105.176 24.92C105.069 24.5733 104.976 24.2533 104.896 23.96C104.842 23.7467 104.789 23.5467 104.736 23.36C104.709 23.1467 104.669 22.96 104.616 22.8C104.322 23.0667 104.029 23.3867 103.736 23.76C103.442 24.1333 103.149 24.5067 102.856 24.88C102.536 25.3067 102.242 25.7067 101.976 26.08C101.709 26.4267 101.496 26.7067 101.336 26.92C101.042 27.2933 100.682 27.48 100.256 27.48C99.9622 27.48 99.7089 27.36 99.4955 27.12C99.3089 26.88 99.2555 26.5333 99.3355 26.08C99.3622 25.9467 99.4022 25.7867 99.4555 25.6C99.5089 25.4133 99.5622 25.2133 99.6155 25C99.6955 24.7867 99.7755 24.5733 99.8555 24.36C99.9355 24.12 100.016 23.88 100.096 23.64C100.282 23.16 100.442 22.6933 100.576 22.24C100.736 21.76 100.829 21.36 100.856 21.04C100.882 20.9333 100.896 20.84 100.896 20.76C100.896 20.68 100.896 20.6 100.896 20.52C100.896 20.2267 100.842 20.04 100.736 19.96C100.656 19.8533 100.549 19.8 100.416 19.8C100.149 19.8 99.8155 19.9067 99.4155 20.12C99.0155 20.3067 98.6555 20.5067 98.3355 20.72C98.0422 20.9067 97.5755 21.28 96.9355 21.84C96.3222 22.3733 95.6422 22.9867 94.8955 23.68C94.1489 24.3467 93.4422 24.9867 92.7755 25.6C92.3489 26 91.9355 26.4133 91.5355 26.84C91.1622 27.24 90.8155 27.6133 90.4955 27.96C90.1489 28.3333 89.8555 28.64 89.6155 28.88C89.3755 29.12 89.2022 29.24 89.0955 29.24ZM127.077 14.8C126.757 14.8 126.531 14.72 126.397 14.56C126.264 14.3733 126.197 14.1467 126.197 13.88C126.197 13.5867 126.251 13.3333 126.357 13.12C126.464 12.9067 126.744 12.72 127.197 12.56C127.677 12.4 128.184 12.28 128.717 12.2C129.277 12.12 129.704 12.08 129.997 12.08C130.317 12.08 130.477 12.1467 130.477 12.28C130.477 12.3867 130.411 12.48 130.277 12.56C130.224 12.5867 130.144 12.6267 130.037 12.68C129.957 12.7333 129.851 12.7867 129.717 12.84C129.531 12.92 129.317 13.0267 129.077 13.16C128.864 13.2667 128.731 13.4 128.677 13.56C128.517 13.9067 128.291 14.2 127.997 14.44C127.704 14.68 127.397 14.8 127.077 14.8ZM120.437 28.32C119.691 28.32 119.011 28.1733 118.397 27.88C117.811 27.5867 117.517 27.0267 117.517 26.2C117.517 25.4 117.704 24.6267 118.077 23.88C118.451 23.1333 118.917 22.4267 119.477 21.76C120.064 21.0933 120.624 20.5067 121.157 20C121.611 19.6 121.971 19.28 122.237 19.04C122.211 19.0133 122.197 18.96 122.197 18.88C122.197 18.6667 122.291 18.4533 122.477 18.24C122.771 17.8133 123.251 17.4533 123.917 17.16C124.077 17.1067 124.237 17.08 124.397 17.08C124.744 17.08 125.091 17.16 125.437 17.32C125.784 17.4533 125.957 17.68 125.957 18C125.957 18.1867 125.891 18.36 125.757 18.52C125.624 18.68 125.504 18.8 125.397 18.88C125.184 19.04 124.851 19.32 124.397 19.72C123.971 20.0933 123.504 20.5333 122.997 21.04C122.491 21.52 121.997 22 121.517 22.48C121.064 22.9333 120.717 23.32 120.477 23.64C119.544 24.84 119.077 25.7467 119.077 26.36C119.077 26.6267 119.184 26.8533 119.397 27.04C119.637 27.2 120.051 27.28 120.637 27.28C121.571 27.28 122.491 27.1333 123.397 26.84C124.331 26.52 125.184 26.16 125.957 25.76C126.597 25.44 127.197 25.08 127.757 24.68C128.344 24.28 128.917 23.8667 129.477 23.44C130.037 22.9867 130.597 22.52 131.157 22.04C131.744 21.56 132.331 21.08 132.917 20.6C132.997 20.5733 133.091 20.56 133.197 20.56C133.411 20.56 133.517 20.6533 133.517 20.84C133.517 21 133.451 21.1467 133.317 21.28C133.157 21.4933 132.824 21.84 132.317 22.32C131.811 22.8 131.184 23.3467 130.437 23.96C129.717 24.5733 128.904 25.1733 127.997 25.76C127.091 26.3467 126.157 26.8533 125.197 27.28C124.691 27.4933 123.984 27.72 123.077 27.96C122.171 28.2 121.291 28.32 120.437 28.32ZM136.299 28.08C135.713 28.08 135.126 28 134.539 27.84C133.953 27.6533 133.406 27.36 132.899 26.96C132.419 26.5867 132.073 26.1733 131.859 25.72C131.646 25.2667 131.539 24.7867 131.539 24.28C131.539 23.3733 131.833 22.4667 132.419 21.56C133.033 20.6533 133.779 19.8133 134.659 19.04C135.539 18.24 136.393 17.6 137.219 17.12C137.539 16.9333 137.926 16.8 138.379 16.72C138.859 16.6133 139.313 16.56 139.739 16.56C139.899 16.56 140.059 16.56 140.219 16.56C140.379 16.56 140.513 16.5867 140.619 16.64C141.313 16.8267 141.819 17.12 142.139 17.52C142.486 17.8933 142.659 18.3333 142.659 18.84C142.659 19.5867 142.406 20.2133 141.899 20.72C141.419 21.2 140.806 21.6 140.059 21.92C139.339 22.2133 138.606 22.44 137.859 22.6C137.113 22.76 136.473 22.8667 135.939 22.92C135.753 22.9467 135.566 22.96 135.379 22.96C135.219 22.96 135.046 22.96 134.859 22.96C134.673 22.96 134.473 22.96 134.259 22.96C134.073 22.9333 133.913 22.9067 133.779 22.88C133.593 23.1733 133.433 23.4667 133.299 23.76C133.166 24.0533 133.073 24.3333 133.019 24.6C132.993 24.68 132.979 24.76 132.979 24.84C132.979 24.92 132.979 25 132.979 25.08C132.979 25.5867 133.193 26.04 133.619 26.44C134.046 26.8133 134.793 27 135.859 27C136.926 27 138.046 26.7733 139.219 26.32C140.393 25.8667 141.553 25.28 142.699 24.56C143.873 23.8133 144.979 23.04 146.019 22.24C147.086 21.4133 148.033 20.64 148.859 19.92C148.993 19.84 149.099 19.8 149.179 19.8C149.419 19.8 149.539 19.9067 149.539 20.12C149.539 20.2533 149.486 20.3867 149.379 20.52C149.086 20.9467 148.579 21.4667 147.859 22.08C147.166 22.6667 146.393 23.28 145.539 23.92C144.713 24.5333 143.953 25.08 143.259 25.56C142.566 26.0133 142.086 26.32 141.819 26.48C141.019 26.88 140.139 27.2533 139.179 27.6C138.219 27.92 137.259 28.08 136.299 28.08ZM134.339 22.12C134.846 22.1733 135.419 22.12 136.059 21.96C136.459 21.88 136.953 21.7467 137.539 21.56C138.126 21.3733 138.713 21.1333 139.299 20.84C139.886 20.5467 140.379 20.2 140.779 19.8C141.179 19.4 141.379 18.96 141.379 18.48C141.379 18.1333 141.126 17.96 140.619 17.96C140.433 17.96 140.193 18 139.899 18.08C139.606 18.1333 139.273 18.2533 138.899 18.44C138.153 18.7867 137.353 19.2933 136.499 19.96C135.673 20.6267 134.953 21.3467 134.339 22.12ZM140.699 14.16C140.086 13.8933 139.353 13.5467 138.499 13.12C137.646 12.6933 136.966 12.36 136.459 12.12L136.379 12.08C136.246 11.84 136.353 11.5733 136.699 11.28C137.073 10.9867 137.406 10.8667 137.699 10.92L137.779 10.96C138.233 11.3067 138.779 11.7067 139.419 12.16C140.059 12.5867 140.713 13 141.379 13.4C141.593 13.5067 141.779 13.6267 141.939 13.76C142.099 13.8933 142.179 14.0133 142.179 14.12C142.179 14.3333 142.033 14.44 141.739 14.44C141.606 14.44 141.433 14.4133 141.219 14.36C141.033 14.28 140.859 14.2133 140.699 14.16ZM151.1 35C149.874 35 148.98 34.6933 148.42 34.08C147.86 33.4667 147.58 32.68 147.58 31.72C147.58 30.68 147.834 29.5067 148.34 28.2C148.874 26.8933 149.567 25.5733 150.42 24.24C151.3 22.88 152.247 21.6267 153.26 20.48C153.127 20.5067 152.994 20.52 152.86 20.52C152.727 20.52 152.594 20.52 152.46 20.52C151.554 20.52 150.794 20.3067 150.18 19.88C149.914 20.28 149.54 20.72 149.06 21.2C148.58 21.68 148.114 22.1067 147.66 22.48C146.54 23.4133 145.354 24.3067 144.1 25.16C142.847 26.0133 141.607 26.72 140.38 27.28C139.154 27.84 138.007 28.16 136.94 28.24C136.86 28.24 136.754 28.2267 136.62 28.2C136.46 28.1733 136.34 28.12 136.26 28.04C136.154 27.96 136.127 27.88 136.18 27.8C136.234 27.6933 136.287 27.6267 136.34 27.6C136.42 27.5467 136.514 27.5067 136.62 27.48C136.727 27.4267 136.874 27.3867 137.06 27.36C137.967 27.1733 138.967 26.8 140.06 26.24C141.154 25.6533 142.287 24.96 143.46 24.16C144.66 23.3333 145.807 22.4667 146.9 21.56C147.354 21.2133 147.82 20.8267 148.3 20.4C148.78 19.9467 149.207 19.5333 149.58 19.16C149.314 18.7333 149.18 18.28 149.18 17.8C149.18 17.16 149.354 16.52 149.7 15.88C150.047 15.24 150.487 14.6533 151.02 14.12C151.554 13.56 152.127 13.12 152.74 12.8C153.354 12.4533 153.927 12.28 154.46 12.28C154.754 12.28 154.954 12.3467 155.06 12.48C155.194 12.6133 155.26 12.76 155.26 12.92C155.26 13.2667 155.14 13.5333 154.9 13.72C154.714 13.88 154.407 14.1733 153.98 14.6C153.58 15.0267 153.14 15.5067 152.66 16.04C152.18 16.5467 151.74 17.0533 151.34 17.56C150.967 18.04 150.714 18.44 150.58 18.76C150.66 18.8933 150.78 19.0133 150.94 19.12C151.127 19.2267 151.434 19.28 151.86 19.28C152.5 19.28 153.127 19.1467 153.74 18.88C154.354 18.6133 154.927 18.2933 155.46 17.92C155.62 17.84 155.794 17.8 155.98 17.8C156.274 17.8 156.554 17.8667 156.82 18C157.114 18.1067 157.314 18.2267 157.42 18.36C157.447 18.3867 157.46 18.44 157.46 18.52C157.46 18.7867 157.314 19.1067 157.02 19.48C156.86 19.6667 156.674 19.8667 156.46 20.08C156.274 20.2933 156.087 20.5067 155.9 20.72C155.154 21.5467 154.38 22.48 153.58 23.52C152.807 24.5333 152.1 25.5733 151.46 26.64C150.82 27.68 150.3 28.6667 149.9 29.6C149.5 30.56 149.3 31.3867 149.3 32.08C149.3 32.5867 149.434 32.9867 149.7 33.28C149.994 33.6 150.487 33.76 151.18 33.76C151.314 33.76 151.46 33.7467 151.62 33.72C151.807 33.72 151.994 33.7067 152.18 33.68C152.847 33.5733 153.607 33.3333 154.46 32.96C155.314 32.5867 156.167 32.1467 157.02 31.64C157.874 31.16 158.607 30.72 159.22 30.32C159.274 30.2667 159.367 30.24 159.5 30.24C159.687 30.24 159.794 30.32 159.82 30.48V30.56C159.82 30.6933 159.74 30.84 159.58 31C159.527 31.0533 159.434 31.1333 159.3 31.24C159.167 31.3733 158.994 31.5333 158.78 31.72C157.927 32.4667 156.98 33.12 155.94 33.68C154.9 34.2667 153.807 34.6533 152.66 34.84C152.394 34.8667 152.127 34.8933 151.86 34.92C151.594 34.9733 151.34 35 151.1 35ZM165.874 28.52C165.261 28.52 164.674 28.4533 164.114 28.32C163.554 28.1867 163.048 27.9867 162.594 27.72C161.421 26.9733 160.834 25.9867 160.834 24.76C160.834 23.8 161.154 22.8267 161.794 21.84C162.461 20.8267 163.314 19.8667 164.354 18.96C165.394 18.0533 166.488 17.3067 167.634 16.72C168.328 16.3467 169.021 16.08 169.714 15.92C170.408 15.76 171.021 15.68 171.554 15.68C172.488 15.68 173.101 15.8667 173.394 16.24C173.714 16.5867 173.874 17 173.874 17.48C173.874 17.9867 173.714 18.48 173.394 18.96C173.074 19.4133 172.621 19.8667 172.034 20.32C171.021 21.1467 169.634 21.88 167.874 22.52C166.141 23.16 164.354 23.6133 162.514 23.88C162.248 24.4133 162.114 24.9067 162.114 25.36C162.168 26.1067 162.554 26.64 163.274 26.96C164.021 27.2533 164.848 27.4 165.754 27.4C166.074 27.4 166.381 27.3867 166.674 27.36C166.968 27.3333 167.248 27.2933 167.514 27.24C168.848 26.9733 170.208 26.4933 171.594 25.8C173.008 25.1067 174.368 24.3067 175.674 23.4C176.981 22.4933 178.154 21.5867 179.194 20.68C179.354 20.6267 179.461 20.6 179.514 20.6C179.701 20.6 179.794 20.6933 179.794 20.88C179.794 21.0133 179.741 21.1467 179.634 21.28C179.448 21.6 179.061 22.0133 178.474 22.52C177.914 23.0267 177.274 23.5467 176.554 24.08C175.834 24.5867 175.128 25.08 174.434 25.56C173.768 26.0133 173.208 26.36 172.754 26.6C171.794 27.1333 170.701 27.5867 169.474 27.96C168.248 28.3333 167.048 28.52 165.874 28.52ZM163.194 22.76C164.048 22.5467 165.034 22.28 166.154 21.96C167.274 21.6133 168.341 21.2133 169.354 20.76C170.368 20.28 171.128 19.76 171.634 19.2C171.848 18.9867 171.994 18.7733 172.074 18.56C172.154 18.32 172.194 18.12 172.194 17.96C172.194 17.8267 172.141 17.7067 172.034 17.6C171.954 17.4933 171.688 17.44 171.234 17.44C170.594 17.44 169.768 17.7067 168.754 18.24C167.741 18.7467 166.728 19.4133 165.714 20.24C164.728 21.04 163.888 21.88 163.194 22.76ZM193.153 21.952C192.793 21.952 192.613 21.832 192.613 21.592C192.613 21.304 193.021 21.088 193.837 20.944C193.981 20.92 194.281 20.896 194.737 20.872C195.193 20.848 195.709 20.836 196.285 20.836C196.861 20.812 197.413 20.8 197.941 20.8C198.469 20.8 198.877 20.8 199.165 20.8C199.501 20.8 199.837 20.8 200.173 20.8C200.533 20.776 200.929 20.764 201.361 20.764C201.865 20.764 202.405 20.776 202.981 20.8C203.557 20.824 204.181 20.884 204.853 20.98C205.645 21.1 206.041 21.232 206.041 21.376C206.041 21.424 205.921 21.484 205.681 21.556C205.465 21.628 205.177 21.664 204.817 21.664C204.049 21.688 203.137 21.724 202.081 21.772C201.025 21.796 199.933 21.832 198.805 21.88C197.677 21.904 196.609 21.928 195.601 21.952C194.617 21.952 193.801 21.952 193.153 21.952ZM229.374 28V13.024H232.146V28H229.374ZM220.374 28V25.876H230.814V28H220.374ZM219.006 28V13.024H221.814V28H219.006ZM230.634 28V25.876H234.846L233.622 28H230.634ZM232.47 33.364L232.038 25.876H234.846L234.594 33.364H232.47ZM244.428 28.36C243.012 28.36 241.752 28.072 240.648 27.496C239.568 26.896 238.716 26.044 238.092 24.94C237.492 23.836 237.192 22.528 237.192 21.016C237.192 19.36 237.528 17.908 238.2 16.66C238.896 15.412 239.832 14.44 241.008 13.744C242.184 13.048 243.516 12.7 245.004 12.7C246.804 12.7 248.16 13.228 249.072 14.284C249.984 15.316 250.44 16.744 250.44 18.568C250.44 18.784 250.44 19.012 250.44 19.252C250.44 19.492 250.416 19.732 250.368 19.972H247.956V18.532C247.956 17.26 247.704 16.312 247.2 15.688C246.696 15.04 245.892 14.716 244.788 14.716C243.804 14.716 242.94 14.956 242.196 15.436C241.452 15.916 240.876 16.6 240.468 17.488C240.06 18.376 239.856 19.42 239.856 20.62C239.856 22.324 240.324 23.68 241.26 24.688C242.22 25.672 243.468 26.164 245.004 26.164C245.796 26.164 246.552 26.02 247.272 25.732C248.016 25.42 248.736 24.964 249.432 24.364L250.404 25.84C249.756 26.464 249.096 26.968 248.424 27.352C247.752 27.712 247.08 27.964 246.408 28.108C245.736 28.276 245.076 28.36 244.428 28.36ZM238.704 19.972L239.028 18.208H250.008V19.972H238.704ZM269.957 28.324C268.493 28.324 267.185 28 266.033 27.352C264.905 26.704 264.005 25.816 263.333 24.688C262.685 23.536 262.361 22.216 262.361 20.728C262.361 19.192 262.709 17.824 263.405 16.624C264.125 15.4 265.097 14.44 266.321 13.744C267.545 13.048 268.925 12.7 270.461 12.7C271.493 12.7 272.417 12.868 273.233 13.204C274.073 13.516 274.817 13.972 275.465 14.572L274.241 16.732C273.641 16.108 272.993 15.628 272.297 15.292C271.625 14.956 270.893 14.788 270.101 14.788C269.117 14.788 268.265 15.04 267.545 15.544C266.825 16.048 266.273 16.732 265.889 17.596C265.529 18.46 265.349 19.408 265.349 20.44C265.349 21.592 265.577 22.6 266.033 23.464C266.513 24.328 267.161 25 267.977 25.48C268.793 25.936 269.705 26.164 270.713 26.164C271.433 26.164 272.141 26.02 272.837 25.732C273.533 25.42 274.181 24.988 274.781 24.436L275.681 26.056C275.105 26.608 274.493 27.052 273.845 27.388C273.197 27.724 272.549 27.964 271.901 28.108C271.253 28.252 270.605 28.324 269.957 28.324ZM283.293 28V13.024H286.101V28H283.293ZM277.569 15.148V13.024H291.825V15.148H277.569ZM300.909 29.296L293.493 13.024H296.625L302.133 26.128L300.909 29.296ZM305.949 13.024H308.829L298.677 38.404H295.653L301.053 27.028L305.949 13.024ZM311.534 26.848C312.038 26.2 312.458 25.36 312.794 24.328C313.13 23.272 313.406 22.108 313.622 20.836C313.838 19.54 313.994 18.22 314.09 16.876C314.21 15.532 314.306 14.248 314.378 13.024H316.718C316.67 14.248 316.586 15.544 316.466 16.912C316.346 18.256 316.19 19.564 315.998 20.836C315.806 22.108 315.542 23.272 315.206 24.328C314.894 25.36 314.51 26.2 314.054 26.848H311.534ZM309.986 33.364L309.626 25.948H312.506L312.146 33.364H309.986ZM310.85 28L310.31 25.948H327.41L326.186 28H310.85ZM324.926 33.364L324.602 25.948H327.41L327.05 33.364H324.926ZM321.974 28V13.024H324.674V28H321.974ZM315.782 15.148V13.024H323.234V15.148H315.782ZM331.451 28V13.276L334.295 12.772V28H331.451ZM332.891 8.884C332.291 8.884 331.811 8.716 331.451 8.38C331.115 8.02 330.947 7.564 330.947 7.012C330.947 6.46 331.115 6.016 331.451 5.68C331.811 5.32 332.291 5.14 332.891 5.14C333.443 5.14 333.899 5.32 334.259 5.68C334.619 6.016 334.799 6.46 334.799 7.012C334.799 7.564 334.619 8.02 334.259 8.38C333.899 8.716 333.443 8.884 332.891 8.884ZM349.584 28V14.968H346.092C345.132 14.968 344.376 15.196 343.824 15.652C343.296 16.084 343.032 16.696 343.032 17.488C343.032 18.352 343.356 19.012 344.004 19.468C344.676 19.924 345.6 20.152 346.776 20.152C347.256 20.152 347.88 20.128 348.648 20.08C349.44 20.008 350.148 19.924 350.772 19.828V21.7C350.124 21.82 349.416 21.904 348.648 21.952C347.904 22 347.268 22.024 346.74 22.024C344.748 22.024 343.188 21.664 342.06 20.944C340.932 20.2 340.368 19.096 340.368 17.632C340.368 16.192 340.92 15.064 342.024 14.248C343.128 13.432 344.64 13.024 346.56 13.024H352.14V28H349.584ZM339.36 28L344.328 20.8L346.164 21.664L342.6 28H339.36ZM358.783 34.732L357.523 34.012C358.051 33.292 358.447 32.488 358.711 31.6C358.975 30.736 359.107 29.872 359.107 29.008C359.107 28.12 358.987 27.328 358.747 26.632C358.531 25.912 358.183 25.36 357.703 24.976L360.187 23.716C360.835 24.244 361.291 24.868 361.555 25.588C361.843 26.308 361.987 27.088 361.987 27.928C361.987 28.792 361.855 29.656 361.591 30.52C361.351 31.384 360.991 32.176 360.511 32.896C360.031 33.64 359.455 34.252 358.783 34.732ZM376.186 26.848C376.69 26.2 377.11 25.36 377.446 24.328C377.782 23.272 378.058 22.108 378.274 20.836C378.49 19.54 378.646 18.22 378.742 16.876C378.862 15.532 378.958 14.248 379.03 13.024H381.37C381.322 14.248 381.238 15.544 381.118 16.912C380.998 18.256 380.842 19.564 380.65 20.836C380.458 22.108 380.194 23.272 379.858 24.328C379.546 25.36 379.162 26.2 378.706 26.848H376.186ZM374.638 33.364L374.278 25.948H377.158L376.798 33.364H374.638ZM375.502 28L374.962 25.948H392.062L390.838 28H375.502ZM389.578 33.364L389.254 25.948H392.062L391.702 33.364H389.578ZM386.626 28V13.024H389.326V28H386.626ZM380.434 15.148V13.024H387.886V15.148H380.434ZM401.647 28.36C400.231 28.36 398.971 28.072 397.867 27.496C396.787 26.896 395.935 26.044 395.311 24.94C394.711 23.836 394.411 22.528 394.411 21.016C394.411 19.36 394.747 17.908 395.419 16.66C396.115 15.412 397.051 14.44 398.227 13.744C399.403 13.048 400.735 12.7 402.223 12.7C404.023 12.7 405.379 13.228 406.291 14.284C407.203 15.316 407.659 16.744 407.659 18.568C407.659 18.784 407.659 19.012 407.659 19.252C407.659 19.492 407.635 19.732 407.587 19.972H405.175V18.532C405.175 17.26 404.923 16.312 404.419 15.688C403.915 15.04 403.111 14.716 402.007 14.716C401.023 14.716 400.159 14.956 399.415 15.436C398.671 15.916 398.095 16.6 397.687 17.488C397.279 18.376 397.075 19.42 397.075 20.62C397.075 22.324 397.543 23.68 398.479 24.688C399.439 25.672 400.687 26.164 402.223 26.164C403.015 26.164 403.771 26.02 404.491 25.732C405.235 25.42 405.955 24.964 406.651 24.364L407.623 25.84C406.975 26.464 406.315 26.968 405.643 27.352C404.971 27.712 404.299 27.964 403.627 28.108C402.955 28.276 402.295 28.36 401.647 28.36ZM395.923 19.972L396.247 18.208H407.227V19.972H395.923ZM430.812 28L423.36 20.152L430.596 13.024H434.268L425.304 20.908V19L434.52 28H430.812ZM420.768 28V13.024H423.576V28H420.768ZM443.525 28.324C442.061 28.324 440.741 28 439.565 27.352C438.413 26.704 437.501 25.804 436.829 24.652C436.181 23.5 435.857 22.192 435.857 20.728C435.857 19.168 436.205 17.788 436.901 16.588C437.621 15.364 438.605 14.416 439.853 13.744C441.101 13.048 442.517 12.7 444.101 12.7C445.565 12.7 446.861 13.024 447.989 13.672C449.141 14.32 450.053 15.22 450.725 16.372C451.397 17.5 451.733 18.808 451.733 20.296C451.733 21.832 451.373 23.212 450.653 24.436C449.957 25.66 448.997 26.62 447.773 27.316C446.549 27.988 445.133 28.324 443.525 28.324ZM443.921 26.344C444.953 26.344 445.829 26.08 446.549 25.552C447.269 25.024 447.809 24.328 448.169 23.464C448.529 22.576 448.709 21.616 448.709 20.584C448.709 19.36 448.481 18.316 448.025 17.452C447.593 16.564 446.993 15.88 446.225 15.4C445.481 14.92 444.641 14.68 443.705 14.68C442.697 14.68 441.821 14.944 441.077 15.472C440.357 15.976 439.805 16.66 439.421 17.524C439.037 18.364 438.845 19.324 438.845 20.404C438.845 21.628 439.073 22.684 439.529 23.572C439.985 24.46 440.597 25.144 441.365 25.624C442.133 26.104 442.985 26.344 443.921 26.344ZM472.67 28L465.902 20.368L472.382 13.024H475.982L467.738 21.124V19.216L476.27 28H472.67ZM453.266 28L461.834 19.216V21.124L453.59 13.024H457.154L463.67 20.368L456.902 28H453.266ZM463.454 28V13.024H466.118V28H463.454ZM485.038 28.36C483.622 28.36 482.362 28.072 481.258 27.496C480.178 26.896 479.326 26.044 478.702 24.94C478.102 23.836 477.802 22.528 477.802 21.016C477.802 19.36 478.138 17.908 478.81 16.66C479.506 15.412 480.442 14.44 481.618 13.744C482.794 13.048 484.126 12.7 485.614 12.7C487.414 12.7 488.77 13.228 489.682 14.284C490.594 15.316 491.05 16.744 491.05 18.568C491.05 18.784 491.05 19.012 491.05 19.252C491.05 19.492 491.026 19.732 490.978 19.972H488.566V18.532C488.566 17.26 488.314 16.312 487.81 15.688C487.306 15.04 486.502 14.716 485.398 14.716C484.414 14.716 483.55 14.956 482.806 15.436C482.062 15.916 481.486 16.6 481.078 17.488C480.67 18.376 480.466 19.42 480.466 20.62C480.466 22.324 480.934 23.68 481.87 24.688C482.83 25.672 484.078 26.164 485.614 26.164C486.406 26.164 487.162 26.02 487.882 25.732C488.626 25.42 489.346 24.964 490.042 24.364L491.014 25.84C490.366 26.464 489.706 26.968 489.034 27.352C488.362 27.712 487.69 27.964 487.018 28.108C486.346 28.276 485.686 28.36 485.038 28.36ZM479.314 19.972L479.638 18.208H490.618V19.972H479.314ZM505.919 28V13.024H508.727V28H505.919ZM495.299 28V13.024H498.107V28H495.299ZM496.667 21.556V19.432H507.359V21.556H496.667ZM6.30116 76.36C5.02916 76.36 3.91316 76.144 2.95316 75.712C2.01716 75.28 1.26116 74.764 0.685156 74.164L1.76516 72.112C2.36516 72.832 3.09716 73.384 3.96116 73.768C4.82516 74.152 5.70116 74.344 6.58916 74.344C7.64516 74.344 8.48516 74.104 9.10916 73.624C9.73316 73.144 10.0452 72.52 10.0452 71.752C10.0452 71.008 9.75716 70.408 9.18116 69.952C8.62916 69.472 7.63316 69.232 6.19316 69.232H4.60916V67.36H6.19316C7.24916 67.36 8.04116 67.132 8.56916 66.676C9.12116 66.196 9.39716 65.62 9.39716 64.948C9.39716 64.324 9.13316 63.796 8.60516 63.364C8.10116 62.908 7.36916 62.68 6.40916 62.68C5.61716 62.68 4.87316 62.86 4.17716 63.22C3.48116 63.556 2.91716 64 2.48516 64.552L1.36916 62.86C2.06516 62.092 2.89316 61.54 3.85316 61.204C4.83716 60.844 5.83316 60.664 6.84116 60.664C8.35316 60.664 9.58916 61 10.5492 61.672C11.5332 62.32 12.0252 63.28 12.0252 64.552C12.0252 65.44 11.7972 66.196 11.3412 66.82C10.8852 67.444 10.2732 67.912 9.50516 68.224C8.76116 68.512 7.93316 68.656 7.02116 68.656V67.72C8.74916 67.72 10.1052 68.056 11.0892 68.728C12.0732 69.376 12.5652 70.372 12.5652 71.716C12.5652 72.676 12.2772 73.504 11.7012 74.2C11.1492 74.896 10.4052 75.436 9.46916 75.82C8.53316 76.18 7.47716 76.36 6.30116 76.36ZM27.202 76V61.024H30.01V76H27.202ZM16.582 76V61.024H19.39V76H16.582ZM17.95 69.556V67.432H28.642V69.556H17.95ZM46.0474 76.216C45.0874 76.216 44.3314 75.88 43.7794 75.208C43.2274 74.536 42.9634 73.552 42.9874 72.256L43.1314 65.596C43.1554 64.876 43.0834 64.3 42.9154 63.868C42.7474 63.412 42.5074 63.076 42.1954 62.86C41.8834 62.644 41.4994 62.536 41.0434 62.536C40.5874 62.536 40.0834 62.644 39.5314 62.86C39.0034 63.076 38.5354 63.424 38.1274 63.904C37.7434 64.384 37.5034 65.008 37.4074 65.776L34.6714 65.488C34.8154 64.792 35.0914 64.156 35.4994 63.58C35.9074 62.98 36.4234 62.476 37.0474 62.068C37.6954 61.636 38.4034 61.312 39.1714 61.096C39.9394 60.856 40.7194 60.736 41.5114 60.736C42.9994 60.736 44.0914 61.144 44.7874 61.96C45.4834 62.776 45.8194 63.868 45.7954 65.236L45.7234 72.796C45.7234 73.252 45.8074 73.612 45.9754 73.876C46.1434 74.14 46.3834 74.272 46.6954 74.272C46.9354 74.272 47.1754 74.212 47.4154 74.092C47.6794 73.972 47.8954 73.804 48.0634 73.588L48.9634 74.92C48.6514 75.304 48.2314 75.616 47.7034 75.856C47.1994 76.096 46.6474 76.216 46.0474 76.216ZM38.0914 76.216C36.9634 76.216 36.0514 75.904 35.3554 75.28C34.6834 74.656 34.3474 73.84 34.3474 72.832C34.3474 72.256 34.4674 71.716 34.7074 71.212C34.9714 70.684 35.4034 70.216 36.0034 69.808C36.6274 69.4 37.5034 69.052 38.6314 68.764L44.5714 67.216L44.7514 68.62L39.3154 70.276C38.4274 70.564 37.8394 70.9 37.5514 71.284C37.2874 71.644 37.1554 72.028 37.1554 72.436C37.1554 72.988 37.3354 73.408 37.6954 73.696C38.0794 73.984 38.5474 74.128 39.0994 74.128C39.7954 74.128 40.5754 73.9 41.4394 73.444C42.3034 72.964 43.2754 72.376 44.3554 71.68L44.6794 72.652C43.6474 73.636 42.5794 74.476 41.4754 75.172C40.3954 75.868 39.2674 76.216 38.0914 76.216ZM62.8614 76L63.1134 61.024H65.6694V76H62.8614ZM51.7734 76V61.024H54.5814L54.3654 76H51.7734ZM53.5734 76V74.776L62.4654 61.024H63.9774V62.356L55.1214 76H53.5734ZM58.6494 58.108C57.6174 58.108 56.6694 57.868 55.8054 57.388C54.9654 56.908 54.2814 56.26 53.7534 55.444L55.6254 53.716C56.1534 54.532 56.7294 55.108 57.3534 55.444C58.0014 55.78 58.6614 55.948 59.3334 55.948C60.1014 55.948 60.7734 55.768 61.3494 55.408C61.9254 55.024 62.4294 54.46 62.8614 53.716L64.1574 54.544C63.6534 55.696 62.9094 56.584 61.9254 57.208C60.9414 57.808 59.8494 58.108 58.6494 58.108ZM70.895 74.848C71.399 74.2 71.819 73.36 72.155 72.328C72.491 71.272 72.767 70.108 72.983 68.836C73.199 67.54 73.355 66.22 73.451 64.876C73.571 63.532 73.667 62.248 73.739 61.024H76.079C76.031 62.248 75.947 63.544 75.827 64.912C75.707 66.256 75.551 67.564 75.359 68.836C75.167 70.108 74.903 71.272 74.567 72.328C74.255 73.36 73.871 74.2 73.415 74.848H70.895ZM69.347 81.364L68.987 73.948H71.867L71.507 81.364H69.347ZM70.211 76L69.671 73.948H86.771L85.547 76H70.211ZM84.287 81.364L83.963 73.948H86.771L86.411 81.364H84.287ZM81.335 76V61.024H84.035V76H81.335ZM75.143 63.148V61.024H82.595V63.148H75.143ZM96.356 76.36C94.94 76.36 93.68 76.072 92.576 75.496C91.496 74.896 90.644 74.044 90.02 72.94C89.42 71.836 89.12 70.528 89.12 69.016C89.12 67.36 89.456 65.908 90.128 64.66C90.824 63.412 91.76 62.44 92.936 61.744C94.112 61.048 95.444 60.7 96.932 60.7C98.732 60.7 100.088 61.228 101 62.284C101.912 63.316 102.368 64.744 102.368 66.568C102.368 66.784 102.368 67.012 102.368 67.252C102.368 67.492 102.344 67.732 102.296 67.972H99.884V66.532C99.884 65.26 99.632 64.312 99.128 63.688C98.624 63.04 97.82 62.716 96.716 62.716C95.732 62.716 94.868 62.956 94.124 63.436C93.38 63.916 92.804 64.6 92.396 65.488C91.988 66.376 91.784 67.42 91.784 68.62C91.784 70.324 92.252 71.68 93.188 72.688C94.148 73.672 95.396 74.164 96.932 74.164C97.724 74.164 98.48 74.02 99.2 73.732C99.944 73.42 100.664 72.964 101.36 72.364L102.332 73.84C101.684 74.464 101.024 74.968 100.352 75.352C99.68 75.712 99.008 75.964 98.336 76.108C97.664 76.276 97.004 76.36 96.356 76.36ZM90.632 67.972L90.956 66.208H101.936V67.972H90.632ZM121.885 76.324C120.421 76.324 119.113 76 117.961 75.352C116.833 74.704 115.933 73.816 115.261 72.688C114.613 71.536 114.289 70.216 114.289 68.728C114.289 67.192 114.637 65.824 115.333 64.624C116.053 63.4 117.025 62.44 118.249 61.744C119.473 61.048 120.853 60.7 122.389 60.7C123.421 60.7 124.345 60.868 125.161 61.204C126.001 61.516 126.745 61.972 127.393 62.572L126.169 64.732C125.569 64.108 124.921 63.628 124.225 63.292C123.553 62.956 122.821 62.788 122.029 62.788C121.045 62.788 120.193 63.04 119.473 63.544C118.753 64.048 118.201 64.732 117.817 65.596C117.457 66.46 117.277 67.408 117.277 68.44C117.277 69.592 117.505 70.6 117.961 71.464C118.441 72.328 119.089 73 119.905 73.48C120.721 73.936 121.633 74.164 122.641 74.164C123.361 74.164 124.069 74.02 124.765 73.732C125.461 73.42 126.109 72.988 126.709 72.436L127.609 74.056C127.033 74.608 126.421 75.052 125.773 75.388C125.125 75.724 124.477 75.964 123.829 76.108C123.181 76.252 122.533 76.324 121.885 76.324ZM131.297 76V61.024H137.921C139.361 61.024 140.537 61.36 141.449 62.032C142.361 62.704 142.817 63.592 142.817 64.696C142.817 65.464 142.589 66.184 142.133 66.856C141.677 67.504 141.053 68.032 140.261 68.44C139.493 68.824 138.605 69.016 137.597 69.016L138.029 67.468C139.829 67.468 141.269 67.852 142.349 68.62C143.453 69.364 144.005 70.372 144.005 71.644C144.005 72.916 143.489 73.96 142.457 74.776C141.425 75.592 139.997 76 138.173 76H131.297ZM133.781 74.02H138.245C139.301 74.02 140.105 73.804 140.657 73.372C141.209 72.94 141.485 72.364 141.485 71.644C141.485 70.9 141.149 70.312 140.477 69.88C139.829 69.448 138.833 69.232 137.489 69.232H133.025V67.288H137.885C138.677 67.288 139.289 67.084 139.721 66.676C140.177 66.268 140.405 65.752 140.405 65.128C140.405 64.576 140.177 64.096 139.721 63.688C139.289 63.28 138.581 63.076 137.597 63.076H133.781V74.02ZM148.609 76V61.276L151.453 60.772V76H148.609ZM150.049 56.884C149.449 56.884 148.969 56.716 148.609 56.38C148.273 56.02 148.105 55.564 148.105 55.012C148.105 54.46 148.273 54.016 148.609 53.68C148.969 53.32 149.449 53.14 150.049 53.14C150.601 53.14 151.057 53.32 151.417 53.68C151.777 54.016 151.957 54.46 151.957 55.012C151.957 55.564 151.777 56.02 151.417 56.38C151.057 56.716 150.601 56.884 150.049 56.884ZM168.506 76L168.758 61.024H171.314V76H168.506ZM157.418 76V61.024H160.226L160.01 76H157.418ZM159.218 76V74.776L168.11 61.024H169.622V62.356L160.766 76H159.218ZM164.294 58.108C163.262 58.108 162.314 57.868 161.45 57.388C160.61 56.908 159.926 56.26 159.398 55.444L161.27 53.716C161.798 54.532 162.374 55.108 162.998 55.444C163.646 55.78 164.306 55.948 164.978 55.948C165.746 55.948 166.418 55.768 166.994 55.408C167.57 55.024 168.074 54.46 168.506 53.716L169.802 54.544C169.298 55.696 168.554 56.584 167.57 57.208C166.586 57.808 165.494 58.108 164.294 58.108ZM186.911 76V73.876H196.415V76H186.911ZM185.543 76V61.024H188.279V76H185.543ZM204.443 76V61.024H207.143V76H204.443ZM196.307 76V73.876H205.811V76H196.307ZM195.011 76V61.024H197.711V76H195.011ZM210.996 76.18L210.924 73.732C211.74 73.636 212.376 73.108 212.832 72.148C213.312 71.188 213.672 69.784 213.912 67.936C214.176 66.088 214.38 63.784 214.524 61.024H216.936C216.792 63.208 216.636 65.128 216.468 66.784C216.3 68.416 216.072 69.82 215.784 70.996C215.52 72.172 215.172 73.144 214.74 73.912C214.332 74.656 213.816 75.22 213.192 75.604C212.592 75.964 211.86 76.156 210.996 76.18ZM222.192 76V61.024H224.964V76H222.192ZM215.964 63.148V61.024H223.38V63.148H215.964ZM239.656 76V62.968H236.164C235.204 62.968 234.448 63.196 233.896 63.652C233.368 64.084 233.104 64.696 233.104 65.488C233.104 66.352 233.428 67.012 234.076 67.468C234.748 67.924 235.672 68.152 236.848 68.152C237.328 68.152 237.952 68.128 238.72 68.08C239.512 68.008 240.22 67.924 240.844 67.828V69.7C240.196 69.82 239.488 69.904 238.72 69.952C237.976 70 237.34 70.024 236.812 70.024C234.82 70.024 233.26 69.664 232.132 68.944C231.004 68.2 230.44 67.096 230.44 65.632C230.44 64.192 230.992 63.064 232.096 62.248C233.2 61.432 234.712 61.024 236.632 61.024H242.212V76H239.656ZM229.432 76L234.4 68.8L236.236 69.664L232.672 76H229.432ZM245.507 76L251.483 68.332L246.047 61.024H249.575L253.211 66.46L256.991 61.024H260.051L254.579 68.188L260.375 76H256.883L252.815 69.988L248.711 76H245.507ZM272.411 74.848C272.915 74.2 273.335 73.36 273.671 72.328C274.007 71.272 274.283 70.108 274.499 68.836C274.715 67.54 274.871 66.22 274.967 64.876C275.087 63.532 275.183 62.248 275.255 61.024H277.595C277.547 62.248 277.463 63.544 277.343 64.912C277.223 66.256 277.067 67.564 276.875 68.836C276.683 70.108 276.419 71.272 276.083 72.328C275.771 73.36 275.387 74.2 274.931 74.848H272.411ZM270.863 81.364L270.503 73.948H273.383L273.023 81.364H270.863ZM271.727 76L271.187 73.948H288.287L287.063 76H271.727ZM285.803 81.364L285.479 73.948H288.287L287.927 81.364H285.803ZM282.851 76V61.024H285.551V76H282.851ZM276.659 63.148V61.024H284.111V63.148H276.659ZM298.16 76.324C296.696 76.324 295.376 76 294.2 75.352C293.048 74.704 292.136 73.804 291.464 72.652C290.816 71.5 290.492 70.192 290.492 68.728C290.492 67.168 290.84 65.788 291.536 64.588C292.256 63.364 293.24 62.416 294.488 61.744C295.736 61.048 297.152 60.7 298.736 60.7C300.2 60.7 301.496 61.024 302.624 61.672C303.776 62.32 304.688 63.22 305.36 64.372C306.032 65.5 306.368 66.808 306.368 68.296C306.368 69.832 306.008 71.212 305.288 72.436C304.592 73.66 303.632 74.62 302.408 75.316C301.184 75.988 299.768 76.324 298.16 76.324ZM298.556 74.344C299.588 74.344 300.464 74.08 301.184 73.552C301.904 73.024 302.444 72.328 302.804 71.464C303.164 70.576 303.344 69.616 303.344 68.584C303.344 67.36 303.116 66.316 302.66 65.452C302.228 64.564 301.628 63.88 300.86 63.4C300.116 62.92 299.276 62.68 298.34 62.68C297.332 62.68 296.456 62.944 295.712 63.472C294.992 63.976 294.44 64.66 294.056 65.524C293.672 66.364 293.48 67.324 293.48 68.404C293.48 69.628 293.708 70.684 294.164 71.572C294.62 72.46 295.232 73.144 296 73.624C296.768 74.104 297.62 74.344 298.556 74.344ZM319.383 76V61.024H326.007C327.447 61.024 328.623 61.36 329.535 62.032C330.447 62.704 330.903 63.592 330.903 64.696C330.903 65.464 330.675 66.184 330.219 66.856C329.763 67.504 329.139 68.032 328.347 68.44C327.579 68.824 326.691 69.016 325.683 69.016L326.115 67.468C327.915 67.468 329.355 67.852 330.435 68.62C331.539 69.364 332.091 70.372 332.091 71.644C332.091 72.916 331.575 73.96 330.543 74.776C329.511 75.592 328.083 76 326.259 76H319.383ZM321.867 74.02H326.331C327.387 74.02 328.191 73.804 328.743 73.372C329.295 72.94 329.571 72.364 329.571 71.644C329.571 70.9 329.235 70.312 328.563 69.88C327.915 69.448 326.919 69.232 325.575 69.232H321.111V67.288H325.971C326.763 67.288 327.375 67.084 327.807 66.676C328.263 66.268 328.491 65.752 328.491 65.128C328.491 64.576 328.263 64.096 327.807 63.688C327.375 63.28 326.667 63.076 325.683 63.076H321.867V74.02ZM346.667 76V61.024H349.475V76H346.667ZM336.047 76V61.024H338.855V76H336.047ZM337.415 69.556V67.432H348.107V69.556H337.415ZM360.364 77.296L352.948 61.024H356.08L361.588 74.128L360.364 77.296ZM365.404 61.024H368.284L358.132 86.404H355.108L360.508 75.028L365.404 61.024ZM375.654 76V61.024H378.462V76H375.654ZM369.93 63.148V61.024H384.186V63.148H369.93ZM395.035 76.216C393.739 76.216 392.611 75.904 391.651 75.28C390.715 74.632 390.007 73.72 389.527 72.544L390.247 71.644C390.727 72.46 391.339 73.084 392.083 73.516C392.851 73.948 393.691 74.164 394.603 74.164C395.611 74.164 396.499 73.924 397.267 73.444C398.035 72.94 398.635 72.256 399.067 71.392C399.499 70.528 399.715 69.52 399.715 68.368C399.715 67.312 399.523 66.364 399.139 65.524C398.779 64.684 398.251 64.012 397.555 63.508C396.883 63.004 396.067 62.752 395.107 62.752C394.291 62.752 393.451 62.98 392.587 63.436C391.723 63.868 390.967 64.612 390.319 65.668L389.275 65.092C390.091 63.652 391.027 62.584 392.083 61.888C393.163 61.192 394.411 60.844 395.827 60.844C397.219 60.844 398.431 61.156 399.463 61.78C400.495 62.404 401.287 63.268 401.839 64.372C402.415 65.476 402.703 66.724 402.703 68.116C402.703 69.676 402.355 71.068 401.659 72.292C400.987 73.492 400.075 74.452 398.923 75.172C397.771 75.868 396.475 76.216 395.035 76.216ZM387.727 86.404V61.024H390.067L390.571 64.084V85.9L387.727 86.404ZM407.5 76V61.276L410.344 60.772V76H407.5ZM408.939 56.884C408.34 56.884 407.86 56.716 407.5 56.38C407.164 56.02 406.996 55.564 406.996 55.012C406.996 54.46 407.164 54.016 407.5 53.68C407.86 53.32 408.34 53.14 408.939 53.14C409.492 53.14 409.948 53.32 410.308 53.68C410.668 54.016 410.848 54.46 410.848 55.012C410.848 55.564 410.668 56.02 410.308 56.38C409.948 56.716 409.492 56.884 408.939 56.884ZM417.677 76V73.876H427.181V76H417.677ZM416.309 76V61.024H419.045V76H416.309ZM435.209 76V61.024H437.909V76H435.209ZM427.073 76V73.876H436.577V76H427.073ZM425.777 76V61.024H428.477V76H425.777ZM453.893 76V61.024H456.701V76H453.893ZM443.273 76V61.024H446.081V76H443.273ZM444.641 69.556V67.432H455.333V69.556H444.641ZM462.047 76V61.024H464.783V73.912H467.771C468.827 73.912 469.643 73.672 470.219 73.192C470.819 72.688 471.119 72.004 471.119 71.14C471.119 70.18 470.771 69.436 470.075 68.908C469.403 68.356 468.443 68.08 467.195 68.08H464.171V66.028H467.699C468.635 66.028 469.475 66.136 470.219 66.352C470.963 66.568 471.587 66.88 472.091 67.288C472.619 67.672 473.015 68.152 473.279 68.728C473.543 69.28 473.675 69.928 473.675 70.672C473.675 71.728 473.387 72.664 472.811 73.48C472.259 74.272 471.491 74.896 470.507 75.352C469.523 75.784 468.359 76 467.015 76H462.047ZM483.785 76.324C482.321 76.324 481.001 76 479.825 75.352C478.673 74.704 477.761 73.804 477.089 72.652C476.441 71.5 476.117 70.192 476.117 68.728C476.117 67.168 476.465 65.788 477.161 64.588C477.881 63.364 478.865 62.416 480.113 61.744C481.361 61.048 482.777 60.7 484.361 60.7C485.825 60.7 487.121 61.024 488.249 61.672C489.401 62.32 490.313 63.22 490.985 64.372C491.657 65.5 491.993 66.808 491.993 68.296C491.993 69.832 491.633 71.212 490.913 72.436C490.217 73.66 489.257 74.62 488.033 75.316C486.809 75.988 485.393 76.324 483.785 76.324ZM484.181 74.344C485.213 74.344 486.089 74.08 486.809 73.552C487.529 73.024 488.069 72.328 488.429 71.464C488.789 70.576 488.969 69.616 488.969 68.584C488.969 67.36 488.741 66.316 488.285 65.452C487.853 64.564 487.253 63.88 486.485 63.4C485.741 62.92 484.901 62.68 483.965 62.68C482.957 62.68 482.081 62.944 481.337 63.472C480.617 63.976 480.065 64.66 479.681 65.524C479.297 66.364 479.105 67.324 479.105 68.404C479.105 69.628 479.333 70.684 479.789 71.572C480.245 72.46 480.857 73.144 481.625 73.624C482.393 74.104 483.245 74.344 484.181 74.344ZM496.796 76V61.276L499.64 60.772V76H496.796ZM495.356 56.776C494.828 56.776 494.384 56.62 494.024 56.308C493.688 55.972 493.52 55.552 493.52 55.048C493.52 54.496 493.688 54.064 494.024 53.752C494.384 53.416 494.828 53.248 495.356 53.248C495.884 53.248 496.304 53.416 496.616 53.752C496.952 54.064 497.12 54.496 497.12 55.048C497.12 55.552 496.952 55.972 496.616 56.308C496.304 56.62 495.884 56.776 495.356 56.776ZM501.08 56.776C500.552 56.776 500.108 56.62 499.748 56.308C499.412 55.972 499.244 55.552 499.244 55.048C499.244 54.496 499.412 54.064 499.748 53.752C500.108 53.416 500.552 53.248 501.08 53.248C501.608 53.248 502.04 53.416 502.376 53.752C502.712 54.064 502.88 54.496 502.88 55.048C502.88 55.552 502.712 55.972 502.376 56.308C502.04 56.62 501.608 56.776 501.08 56.776ZM518.389 76V61.024H521.197V76H518.389ZM512.665 63.148V61.024H526.921V63.148H512.665ZM541.153 76.216C540.193 76.216 539.437 75.88 538.885 75.208C538.333 74.536 538.069 73.552 538.093 72.256L538.237 65.596C538.261 64.876 538.189 64.3 538.021 63.868C537.853 63.412 537.613 63.076 537.301 62.86C536.989 62.644 536.605 62.536 536.149 62.536C535.693 62.536 535.189 62.644 534.637 62.86C534.109 63.076 533.641 63.424 533.233 63.904C532.849 64.384 532.609 65.008 532.513 65.776L529.777 65.488C529.921 64.792 530.197 64.156 530.605 63.58C531.013 62.98 531.529 62.476 532.153 62.068C532.801 61.636 533.509 61.312 534.277 61.096C535.045 60.856 535.825 60.736 536.617 60.736C538.105 60.736 539.197 61.144 539.893 61.96C540.589 62.776 540.925 63.868 540.901 65.236L540.829 72.796C540.829 73.252 540.913 73.612 541.081 73.876C541.249 74.14 541.489 74.272 541.801 74.272C542.041 74.272 542.281 74.212 542.521 74.092C542.785 73.972 543.001 73.804 543.169 73.588L544.069 74.92C543.757 75.304 543.337 75.616 542.809 75.856C542.305 76.096 541.753 76.216 541.153 76.216ZM533.197 76.216C532.069 76.216 531.157 75.904 530.461 75.28C529.789 74.656 529.453 73.84 529.453 72.832C529.453 72.256 529.573 71.716 529.813 71.212C530.077 70.684 530.509 70.216 531.109 69.808C531.733 69.4 532.609 69.052 533.737 68.764L539.677 67.216L539.857 68.62L534.421 70.276C533.533 70.564 532.945 70.9 532.657 71.284C532.393 71.644 532.261 72.028 532.261 72.436C532.261 72.988 532.441 73.408 532.801 73.696C533.185 73.984 533.653 74.128 534.205 74.128C534.901 74.128 535.681 73.9 536.545 73.444C537.409 72.964 538.381 72.376 539.461 71.68L539.785 72.652C538.753 73.636 537.685 74.476 536.581 75.172C535.501 75.868 534.373 76.216 533.197 76.216ZM121.877 124.36C120.605 124.36 119.489 124.144 118.529 123.712C117.593 123.28 116.837 122.764 116.261 122.164L117.341 120.112C117.941 120.832 118.673 121.384 119.537 121.768C120.401 122.152 121.277 122.344 122.165 122.344C123.221 122.344 124.061 122.104 124.685 121.624C125.309 121.144 125.621 120.52 125.621 119.752C125.621 119.008 125.333 118.408 124.757 117.952C124.205 117.472 123.209 117.232 121.769 117.232H120.185V115.36H121.769C122.825 115.36 123.617 115.132 124.145 114.676C124.697 114.196 124.973 113.62 124.973 112.948C124.973 112.324 124.709 111.796 124.181 111.364C123.677 110.908 122.945 110.68 121.985 110.68C121.193 110.68 120.449 110.86 119.753 111.22C119.057 111.556 118.493 112 118.061 112.552L116.945 110.86C117.641 110.092 118.469 109.54 119.429 109.204C120.413 108.844 121.409 108.664 122.417 108.664C123.929 108.664 125.165 109 126.125 109.672C127.109 110.32 127.601 111.28 127.601 112.552C127.601 113.44 127.373 114.196 126.917 114.82C126.461 115.444 125.849 115.912 125.081 116.224C124.337 116.512 123.509 116.656 122.597 116.656V115.72C124.325 115.72 125.681 116.056 126.665 116.728C127.649 117.376 128.141 118.372 128.141 119.716C128.141 120.676 127.853 121.504 127.277 122.2C126.725 122.896 125.981 123.436 125.045 123.82C124.109 124.18 123.053 124.36 121.877 124.36ZM138.638 124.324C137.174 124.324 135.854 124 134.678 123.352C133.526 122.704 132.614 121.804 131.942 120.652C131.294 119.5 130.97 118.192 130.97 116.728C130.97 115.168 131.318 113.788 132.014 112.588C132.734 111.364 133.718 110.416 134.966 109.744C136.214 109.048 137.63 108.7 139.214 108.7C140.678 108.7 141.974 109.024 143.102 109.672C144.254 110.32 145.166 111.22 145.838 112.372C146.51 113.5 146.846 114.808 146.846 116.296C146.846 117.832 146.486 119.212 145.766 120.436C145.07 121.66 144.11 122.62 142.886 123.316C141.662 123.988 140.246 124.324 138.638 124.324ZM139.034 122.344C140.066 122.344 140.942 122.08 141.662 121.552C142.382 121.024 142.922 120.328 143.282 119.464C143.642 118.576 143.822 117.616 143.822 116.584C143.822 115.36 143.594 114.316 143.138 113.452C142.706 112.564 142.106 111.88 141.338 111.4C140.594 110.92 139.754 110.68 138.818 110.68C137.81 110.68 136.934 110.944 136.19 111.472C135.47 111.976 134.918 112.66 134.534 113.524C134.15 114.364 133.958 115.324 133.958 116.404C133.958 117.628 134.186 118.684 134.642 119.572C135.098 120.46 135.71 121.144 136.478 121.624C137.246 122.104 138.098 122.344 139.034 122.344ZM151.002 124V109.024H157.626C159.066 109.024 160.242 109.36 161.154 110.032C162.066 110.704 162.522 111.592 162.522 112.696C162.522 113.464 162.294 114.184 161.838 114.856C161.382 115.504 160.758 116.032 159.966 116.44C159.198 116.824 158.31 117.016 157.302 117.016L157.734 115.468C159.534 115.468 160.974 115.852 162.054 116.62C163.158 117.364 163.71 118.372 163.71 119.644C163.71 120.916 163.194 121.96 162.162 122.776C161.13 123.592 159.702 124 157.878 124H151.002ZM153.486 122.02H157.95C159.006 122.02 159.81 121.804 160.362 121.372C160.914 120.94 161.19 120.364 161.19 119.644C161.19 118.9 160.854 118.312 160.182 117.88C159.534 117.448 158.538 117.232 157.194 117.232H152.73V115.288H157.59C158.382 115.288 158.994 115.084 159.426 114.676C159.882 114.268 160.11 113.752 160.11 113.128C160.11 112.576 159.882 112.096 159.426 111.688C158.994 111.28 158.286 111.076 157.302 111.076H153.486V122.02ZM178.286 124V109.024H181.094V124H178.286ZM167.666 124V109.024H170.474V124H167.666ZM169.034 117.556V115.432H179.726V117.556H169.034ZM187.087 124V109.276L189.931 108.772V124H187.087ZM188.527 104.884C187.927 104.884 187.447 104.716 187.087 104.38C186.751 104.02 186.583 103.564 186.583 103.012C186.583 102.46 186.751 102.016 187.087 101.68C187.447 101.32 187.927 101.14 188.527 101.14C189.079 101.14 189.535 101.32 189.895 101.68C190.255 102.016 190.435 102.46 190.435 103.012C190.435 103.564 190.255 104.02 189.895 104.38C189.535 104.716 189.079 104.884 188.527 104.884ZM197.264 124V121.876H206.768V124H197.264ZM195.896 124V109.024H198.632V124H195.896ZM214.796 124V109.024H217.496V124H214.796ZM206.66 124V121.876H216.164V124H206.66ZM205.364 124V109.024H208.064V124H205.364ZM233.481 124V109.024H236.289V124H233.481ZM222.861 124V109.024H225.669V124H222.861ZM224.229 117.556V115.432H234.921V117.556H224.229ZM241.635 124V109.024H244.371V121.912H247.359C248.415 121.912 249.231 121.672 249.807 121.192C250.407 120.688 250.707 120.004 250.707 119.14C250.707 118.18 250.359 117.436 249.663 116.908C248.991 116.356 248.031 116.08 246.783 116.08H243.759V114.028H247.287C248.223 114.028 249.063 114.136 249.807 114.352C250.551 114.568 251.175 114.88 251.679 115.288C252.207 115.672 252.603 116.152 252.867 116.728C253.131 117.28 253.263 117.928 253.263 118.672C253.263 119.728 252.975 120.664 252.399 121.48C251.847 122.272 251.079 122.896 250.095 123.352C249.111 123.784 247.947 124 246.603 124H241.635ZM263.373 124.324C261.909 124.324 260.589 124 259.413 123.352C258.261 122.704 257.349 121.804 256.677 120.652C256.029 119.5 255.705 118.192 255.705 116.728C255.705 115.168 256.053 113.788 256.749 112.588C257.469 111.364 258.453 110.416 259.701 109.744C260.949 109.048 262.365 108.7 263.949 108.7C265.413 108.7 266.709 109.024 267.837 109.672C268.989 110.32 269.901 111.22 270.573 112.372C271.245 113.5 271.581 114.808 271.581 116.296C271.581 117.832 271.221 119.212 270.501 120.436C269.805 121.66 268.845 122.62 267.621 123.316C266.397 123.988 264.981 124.324 263.373 124.324ZM263.769 122.344C264.801 122.344 265.677 122.08 266.397 121.552C267.117 121.024 267.657 120.328 268.017 119.464C268.377 118.576 268.557 117.616 268.557 116.584C268.557 115.36 268.329 114.316 267.873 113.452C267.441 112.564 266.841 111.88 266.073 111.4C265.329 110.92 264.489 110.68 263.553 110.68C262.545 110.68 261.669 110.944 260.925 111.472C260.205 111.976 259.653 112.66 259.269 113.524C258.885 114.364 258.693 115.324 258.693 116.404C258.693 117.628 258.921 118.684 259.377 119.572C259.833 120.46 260.445 121.144 261.213 121.624C261.981 122.104 262.833 122.344 263.769 122.344ZM276.384 124V109.276L279.228 108.772V124H276.384ZM274.944 104.776C274.416 104.776 273.972 104.62 273.612 104.308C273.276 103.972 273.108 103.552 273.108 103.048C273.108 102.496 273.276 102.064 273.612 101.752C273.972 101.416 274.416 101.248 274.944 101.248C275.472 101.248 275.892 101.416 276.204 101.752C276.54 102.064 276.708 102.496 276.708 103.048C276.708 103.552 276.54 103.972 276.204 104.308C275.892 104.62 275.472 104.776 274.944 104.776ZM280.668 104.776C280.14 104.776 279.696 104.62 279.336 104.308C279 103.972 278.832 103.552 278.832 103.048C278.832 102.496 279 102.064 279.336 101.752C279.696 101.416 280.14 101.248 280.668 101.248C281.196 101.248 281.628 101.416 281.964 101.752C282.3 102.064 282.468 102.496 282.468 103.048C282.468 103.552 282.3 103.972 281.964 104.308C281.628 104.62 281.196 104.776 280.668 104.776ZM294.053 124V109.024H296.897V124H294.053ZM295.529 111.184V109.024H304.349V111.184H295.529ZM318.561 124.216C317.601 124.216 316.845 123.88 316.293 123.208C315.741 122.536 315.477 121.552 315.501 120.256L315.645 113.596C315.669 112.876 315.597 112.3 315.429 111.868C315.261 111.412 315.021 111.076 314.709 110.86C314.397 110.644 314.013 110.536 313.557 110.536C313.101 110.536 312.597 110.644 312.045 110.86C311.517 111.076 311.049 111.424 310.641 111.904C310.257 112.384 310.017 113.008 309.921 113.776L307.185 113.488C307.329 112.792 307.605 112.156 308.013 111.58C308.421 110.98 308.937 110.476 309.561 110.068C310.209 109.636 310.917 109.312 311.685 109.096C312.453 108.856 313.233 108.736 314.025 108.736C315.513 108.736 316.605 109.144 317.301 109.96C317.997 110.776 318.333 111.868 318.309 113.236L318.237 120.796C318.237 121.252 318.321 121.612 318.489 121.876C318.657 122.14 318.897 122.272 319.209 122.272C319.449 122.272 319.689 122.212 319.929 122.092C320.193 121.972 320.409 121.804 320.577 121.588L321.477 122.92C321.165 123.304 320.745 123.616 320.217 123.856C319.713 124.096 319.161 124.216 318.561 124.216ZM310.605 124.216C309.477 124.216 308.565 123.904 307.869 123.28C307.197 122.656 306.861 121.84 306.861 120.832C306.861 120.256 306.981 119.716 307.221 119.212C307.485 118.684 307.917 118.216 308.517 117.808C309.141 117.4 310.017 117.052 311.145 116.764L317.085 115.216L317.265 116.62L311.829 118.276C310.941 118.564 310.353 118.9 310.065 119.284C309.801 119.644 309.669 120.028 309.669 120.436C309.669 120.988 309.849 121.408 310.209 121.696C310.593 121.984 311.061 122.128 311.613 122.128C312.309 122.128 313.089 121.9 313.953 121.444C314.817 120.964 315.789 120.376 316.869 119.68L317.193 120.652C316.161 121.636 315.093 122.476 313.989 123.172C312.909 123.868 311.781 124.216 310.605 124.216ZM331.595 124.216C330.299 124.216 329.171 123.904 328.211 123.28C327.275 122.632 326.567 121.72 326.087 120.544L326.807 119.644C327.287 120.46 327.899 121.084 328.643 121.516C329.411 121.948 330.251 122.164 331.163 122.164C332.171 122.164 333.059 121.924 333.827 121.444C334.595 120.94 335.195 120.256 335.627 119.392C336.059 118.528 336.275 117.52 336.275 116.368C336.275 115.312 336.083 114.364 335.699 113.524C335.339 112.684 334.811 112.012 334.115 111.508C333.443 111.004 332.627 110.752 331.667 110.752C330.851 110.752 330.011 110.98 329.147 111.436C328.283 111.868 327.527 112.612 326.879 113.668L325.835 113.092C326.651 111.652 327.587 110.584 328.643 109.888C329.723 109.192 330.971 108.844 332.387 108.844C333.779 108.844 334.991 109.156 336.023 109.78C337.055 110.404 337.847 111.268 338.399 112.372C338.975 113.476 339.263 114.724 339.263 116.116C339.263 117.676 338.915 119.068 338.219 120.292C337.547 121.492 336.635 122.452 335.483 123.172C334.331 123.868 333.035 124.216 331.595 124.216ZM324.287 134.404V109.024H326.627L327.131 112.084V133.9L324.287 134.404ZM343.412 124L344.096 109.096H345.932L345.644 124H343.412ZM357.524 124L357.38 110.392L358.352 109.852L352.232 123.208H351.044L345.212 110.608L345.392 109.096H346.904L352.268 120.22H351.584L356.804 109.096H359.54L360.224 124H357.524ZM372.04 124.324C370.576 124.324 369.256 124 368.08 123.352C366.928 122.704 366.016 121.804 365.344 120.652C364.696 119.5 364.372 118.192 364.372 116.728C364.372 115.168 364.72 113.788 365.416 112.588C366.136 111.364 367.12 110.416 368.368 109.744C369.616 109.048 371.032 108.7 372.616 108.7C374.08 108.7 375.376 109.024 376.504 109.672C377.656 110.32 378.568 111.22 379.24 112.372C379.912 113.5 380.248 114.808 380.248 116.296C380.248 117.832 379.888 119.212 379.168 120.436C378.472 121.66 377.512 122.62 376.288 123.316C375.064 123.988 373.648 124.324 372.04 124.324ZM372.436 122.344C373.468 122.344 374.344 122.08 375.064 121.552C375.784 121.024 376.324 120.328 376.684 119.464C377.044 118.576 377.224 117.616 377.224 116.584C377.224 115.36 376.996 114.316 376.54 113.452C376.108 112.564 375.508 111.88 374.74 111.4C373.996 110.92 373.156 110.68 372.22 110.68C371.212 110.68 370.336 110.944 369.592 111.472C368.872 111.976 368.32 112.66 367.936 113.524C367.552 114.364 367.36 115.324 367.36 116.404C367.36 117.628 367.588 118.684 368.044 119.572C368.5 120.46 369.112 121.144 369.88 121.624C370.648 122.104 371.5 122.344 372.436 122.344ZM395.024 124V109.024H397.832V124H395.024ZM384.404 124V109.024H387.212V124H384.404ZM385.772 117.556V115.432H396.464V117.556H385.772ZM403.826 124V109.276L406.67 108.772V124H403.826ZM405.266 104.884C404.666 104.884 404.186 104.716 403.826 104.38C403.49 104.02 403.322 103.564 403.322 103.012C403.322 102.46 403.49 102.016 403.826 101.68C404.186 101.32 404.666 101.14 405.266 101.14C405.818 101.14 406.274 101.32 406.634 101.68C406.994 102.016 407.174 102.46 407.174 103.012C407.174 103.564 406.994 104.02 406.634 104.38C406.274 104.716 405.818 104.884 405.266 104.884ZM413.283 124V109.276L416.127 108.772V124H413.283ZM411.843 104.776C411.315 104.776 410.871 104.62 410.511 104.308C410.175 103.972 410.007 103.552 410.007 103.048C410.007 102.496 410.175 102.064 410.511 101.752C410.871 101.416 411.315 101.248 411.843 101.248C412.371 101.248 412.791 101.416 413.103 101.752C413.439 102.064 413.607 102.496 413.607 103.048C413.607 103.552 413.439 103.972 413.103 104.308C412.791 104.62 412.371 104.776 411.843 104.776ZM417.567 104.776C417.039 104.776 416.595 104.62 416.235 104.308C415.899 103.972 415.731 103.552 415.731 103.048C415.731 102.496 415.899 102.064 416.235 101.752C416.595 101.416 417.039 101.248 417.567 101.248C418.095 101.248 418.527 101.416 418.863 101.752C419.199 102.064 419.367 102.496 419.367 103.048C419.367 103.552 419.199 103.972 418.863 104.308C418.527 104.62 418.095 104.776 417.567 104.776ZM424.072 124.216C423.448 124.216 422.944 124.036 422.56 123.676C422.176 123.292 421.984 122.8 421.984 122.2C421.984 121.6 422.176 121.12 422.56 120.76C422.944 120.376 423.448 120.184 424.072 120.184C424.672 120.184 425.152 120.376 425.512 120.76C425.896 121.12 426.088 121.6 426.088 122.2C426.088 122.8 425.896 123.292 425.512 123.676C425.152 124.036 424.672 124.216 424.072 124.216Z" fill="white"/>
</svg>
