<svg width="236" height="62" viewBox="0 0 236 62" fill="none" xmlns="http://www.w3.org/2000/svg">
<path d="M79.8988 61.6C73.9681 61.6 68.2081 60.5547 62.6188 58.464C57.0721 56.416 51.5681 53.8347 46.1068 50.72C43.8028 49.3973 41.4988 48.0107 39.1948 46.56C36.9334 45.1093 34.6721 43.6373 32.4108 42.144C30.1921 44.2773 27.8881 46.0053 25.4988 47.328C23.1521 48.6507 20.7201 49.312 18.2028 49.312C16.5388 49.312 14.6614 48.928 12.5708 48.16C10.5228 47.4347 8.79475 46.4107 7.38675 45.088C6.23475 43.9787 5.18942 42.7413 4.25075 41.376C3.35475 39.968 2.60808 38.5813 2.01075 37.216C1.45608 35.8507 1.07208 34.6773 0.85875 33.696C0.60275 32.3307 0.47475 31.136 0.47475 30.112C0.47475 28.0213 0.92275 26.5493 1.81875 25.696C2.75742 24.8 3.95208 24.352 5.40275 24.352C6.64008 24.352 7.98408 24.6293 9.43475 25.184C10.8854 25.696 12.3148 26.3787 13.7228 27.232C16.7094 29.024 19.6534 30.9013 22.5548 32.864C25.4561 34.8267 28.3361 36.768 31.1948 38.688C32.2614 37.536 33.3068 36.2987 34.3308 34.976C35.3548 33.6533 36.3788 32.3307 37.4028 31.008C34.9708 30.752 32.7734 30.0267 30.8108 28.832C28.8481 27.5947 27.2694 25.952 26.0748 23.904C24.9228 21.8133 24.3468 19.424 24.3468 16.736C24.3468 15.072 24.6881 13.4507 25.3708 11.872C26.0961 10.2507 27.0774 8.8 28.3148 7.52C29.5521 6.19733 30.9388 5.152 32.4748 4.384C34.0534 3.616 35.6961 3.232 37.4028 3.232C38.8534 3.232 40.3468 3.59467 41.8828 4.32C42.4801 4.61867 42.7788 4.96 42.7788 5.344C42.7788 5.77066 42.5014 5.984 41.9468 5.984C41.7334 5.984 41.5628 5.94133 41.4348 5.856C40.6241 5.38666 39.7708 5.152 38.8748 5.152C37.4241 5.152 35.9094 5.57866 34.3308 6.432C32.7521 7.24267 31.3441 8.39466 30.1068 9.888C28.9121 11.3813 28.1228 13.152 27.7388 15.2C27.6534 15.6693 27.5894 16.1387 27.5468 16.608C27.5041 17.0773 27.4828 17.5467 27.4828 18.016C27.4828 21.3013 28.4854 23.9893 30.4908 26.08C32.5388 28.1707 35.2268 29.2373 38.5548 29.28C39.7921 27.616 40.8374 26.0587 41.6908 24.608C43.4401 21.8773 45.0828 19.0827 46.6188 16.224C48.1548 13.3227 49.7548 10.6987 51.4188 8.352C53.0828 6.00533 54.9174 4.064 56.9228 2.528C58.9708 0.991999 61.3388 0.223999 64.0268 0.223999C65.2641 0.223999 66.1601 0.650665 66.7148 1.504C67.2694 2.35733 67.5468 3.232 67.5468 4.128C67.5468 6.13333 67.0561 8.288 66.0748 10.592C65.1361 12.8533 63.8134 15.1147 62.1068 17.376C60.4001 19.5947 58.4374 21.664 56.2188 23.584C54.0428 25.4613 51.6961 27.0613 49.1788 28.384C46.6614 29.664 44.1228 30.496 41.5628 30.88C40.3681 32.5867 39.1308 34.272 37.8507 35.936C36.6134 37.5573 35.3121 39.0933 33.9468 40.544C35.8241 41.824 37.7014 43.0613 39.5788 44.256C41.4561 45.4933 43.3548 46.6667 45.2748 47.776C50.5654 50.8907 55.9841 53.4507 61.5308 55.456C67.1201 57.504 73.0508 58.528 79.3228 58.528C80.6028 58.528 82.0108 58.3787 83.5468 58.08C85.0828 57.7813 86.5548 57.2907 87.9628 56.608C89.4134 55.9253 90.5868 55.008 91.4828 53.856C92.4214 52.7467 92.8908 51.3387 92.8908 49.632C92.8908 48.5227 92.7201 47.4987 92.3788 46.56C92.0801 45.6213 91.6748 44.7467 91.1628 43.936C91.0348 43.68 90.9708 43.488 90.9708 43.36C90.9708 43.1467 91.0774 42.9973 91.2908 42.912C91.3334 42.912 91.3548 42.912 91.3548 42.912C91.3974 42.8693 91.4401 42.848 91.4828 42.848C91.6534 42.848 91.8028 42.912 91.9308 43.04C92.1014 43.1253 92.2508 43.2107 92.3788 43.296C93.3601 44.064 94.0001 45.0667 94.2988 46.304C94.6401 47.584 94.8108 48.672 94.8108 49.568C94.8108 53.4933 93.5094 56.48 90.9068 58.528C88.3468 60.576 84.6774 61.6 79.8988 61.6ZM43.0348 28.64C45.4241 27.9573 47.7068 26.848 49.8828 25.312C52.1014 23.776 54.1281 22.0053 55.9628 20C57.8401 17.9947 59.4614 15.968 60.8268 13.92C62.1921 11.872 63.1948 10.016 63.8348 8.352C63.9628 8.01067 64.1121 7.456 64.2828 6.688C64.4961 5.92 64.6028 5.17333 64.6028 4.448C64.6028 3.76533 64.4748 3.21067 64.2188 2.784C64.0054 2.35733 63.6214 2.144 63.0668 2.144C61.8721 2.05866 60.7628 2.44267 59.7388 3.296C58.7574 4.10666 57.8401 5.06666 56.9868 6.176C55.9201 7.49867 54.8748 8.94933 53.8508 10.528C52.8694 12.064 51.8881 13.6427 50.9068 15.264L43.0348 28.64ZM11.4828 45.6C12.4641 46.0693 13.4241 46.4107 14.3628 46.624C15.3014 46.8373 16.2188 46.944 17.1147 46.944C19.4188 46.944 21.5948 46.3253 23.6428 45.088C25.7334 43.8507 27.7388 42.2507 29.6588 40.288C26.9281 38.496 24.1761 36.7253 21.4028 34.976C18.6721 33.184 15.8988 31.4347 13.0828 29.728C11.9734 29.0453 10.9281 28.576 9.94675 28.32C8.96542 28.0213 8.06942 27.872 7.25875 27.872C5.93608 27.872 4.91208 28.2347 4.18675 28.96C3.50408 29.6853 3.24808 30.624 3.41875 31.776C3.76008 33.824 4.33608 35.936 5.14675 38.112C6.00008 40.2453 7.23742 42.1227 8.85875 43.744C9.20008 44.0853 9.58408 44.4053 10.0108 44.704C10.4374 45.0453 10.9281 45.344 11.4828 45.6ZM78.1008 44.704C76.0528 44.704 74.6448 44.256 73.8768 43.36C73.1088 42.464 72.7248 41.3547 72.7248 40.032C72.7248 39.392 72.8101 38.7307 72.9808 38.048C73.1514 37.3227 73.3434 36.64 73.5568 36C72.8741 36.7253 72.0421 37.5573 71.0608 38.496C70.1221 39.4347 69.0768 40.352 67.9248 41.248C66.8154 42.144 65.7061 42.8907 64.5968 43.488C63.4874 44.0427 62.4208 44.32 61.3968 44.32C60.1168 44.32 59.0714 43.7653 58.2608 42.656C57.7488 41.888 57.4928 41.0987 57.4928 40.288C57.4928 39.3067 57.7488 38.368 58.2608 37.472C58.8154 36.5333 59.4341 35.6373 60.1168 34.784C60.8421 33.888 61.4608 33.0773 61.9728 32.352C62.9541 30.9013 63.7861 29.5147 64.4688 28.192C65.1514 26.8693 65.4928 25.8027 65.4928 24.992C65.4928 24.5227 65.3434 24.16 65.0448 23.904C64.5328 23.52 64.2768 23.072 64.2768 22.56C64.2768 22.2187 64.4688 22.048 64.8528 22.048C65.1088 22.048 65.4288 22.176 65.8128 22.432C66.1114 22.6027 66.4314 22.8373 66.7728 23.136C67.1141 23.4347 67.4341 23.776 67.7328 24.16C67.9034 24.3307 68.0528 24.5013 68.1808 24.672C68.3088 24.8427 68.4368 25.0133 68.5648 25.184C68.6501 25.3973 68.7354 25.632 68.8208 25.888C68.9061 26.1013 68.9488 26.3573 68.9488 26.656C68.9488 27.3387 68.7141 28.0853 68.2448 28.896C67.7754 29.7067 67.1781 30.5813 66.4528 31.52C65.7701 32.4587 65.0448 33.4187 64.2768 34.4C63.9354 34.8267 63.4021 35.552 62.6768 36.576C61.9941 37.5573 61.3754 38.5387 60.8208 39.52C60.5648 40.032 60.3301 40.5013 60.1168 40.928C59.9461 41.3547 59.8608 41.7387 59.8608 42.08C59.8608 42.6347 60.1808 42.912 60.8208 42.912C61.4181 42.912 62.1434 42.6773 62.9968 42.208C63.8928 41.696 64.7461 41.1413 65.5568 40.544C66.3674 39.904 66.9648 39.4347 67.3488 39.136C68.7141 37.984 70.1221 36.7893 71.5728 35.552C73.0661 34.272 74.4954 33.056 75.8608 31.904C76.0741 31.7333 76.3514 31.648 76.6928 31.648C77.2901 31.648 77.7594 31.8187 78.1008 32.16C78.2714 32.288 78.3568 32.5227 78.3568 32.864C78.3568 33.5467 78.0154 34.528 77.3328 35.808C77.1621 36.192 76.9701 36.5973 76.7568 37.024C76.5434 37.408 76.3514 37.8133 76.1808 38.24C76.0101 38.6667 75.8394 39.072 75.6688 39.456C75.5408 39.84 75.4554 40.224 75.4128 40.608C75.3701 40.736 75.3488 40.864 75.3488 40.992C75.3488 41.12 75.3488 41.248 75.3488 41.376C75.3488 42.0587 75.5408 42.528 75.9248 42.784C76.3088 42.9973 76.7781 43.104 77.3328 43.104C78.1434 43.104 78.9754 42.976 79.8288 42.72C80.7248 42.4213 81.4501 42.1867 82.0048 42.016C84.1808 41.1627 86.3781 40.0107 88.5968 38.56C90.8581 37.1093 92.8848 35.6587 94.6768 34.208C95.1034 33.824 95.5088 33.4827 95.8928 33.184C96.3194 32.8853 96.7461 32.5227 97.1728 32.096C97.4714 31.7973 97.7061 31.6267 97.8768 31.584H98.0048C98.3461 31.584 98.4528 31.776 98.3248 32.16C98.2394 32.5013 98.0688 32.8427 97.8128 33.184C97.4288 33.824 96.7248 34.6347 95.7008 35.616C94.6768 36.5547 93.4394 37.5573 91.9888 38.624C90.5808 39.648 89.0661 40.6293 87.4448 41.568C85.8234 42.5067 84.2021 43.2747 82.5808 43.872C80.9594 44.4267 79.4661 44.704 78.1008 44.704ZM90.6248 45.984C89.8994 45.984 89.5368 45.6427 89.5368 44.96C89.5368 44.5333 89.6434 44.064 89.8568 43.552C90.1128 43.04 90.4114 42.4853 90.7528 41.888C91.3074 40.9067 91.9474 39.8827 92.6728 38.816C93.3981 37.7493 93.9954 36.8747 94.4648 36.192C94.8914 35.6373 95.4888 34.848 96.2568 33.824C97.0674 32.8 97.7928 31.712 98.4328 30.56C98.9021 29.8347 99.2648 29.152 99.5208 28.512C99.7768 27.8293 99.9048 27.232 99.9048 26.72C99.9048 26.1653 99.7128 25.7387 99.3288 25.44C98.8168 25.056 98.5608 24.608 98.5608 24.096C98.5608 23.7547 98.7528 23.584 99.1368 23.584C99.3928 23.584 99.7128 23.712 100.097 23.968C100.395 24.1387 100.715 24.3733 101.057 24.672C101.441 24.9707 101.782 25.312 102.081 25.696C102.209 25.8667 102.337 26.0373 102.465 26.208C102.593 26.336 102.721 26.5067 102.849 26.72C103.105 27.1467 103.233 27.6373 103.233 28.192C103.233 28.8747 102.998 29.6 102.529 30.368C101.761 31.6907 100.843 32.928 99.7768 34.08C98.7528 35.1893 97.7288 36.2987 96.7048 37.408C98.1128 36.0853 99.5848 34.7627 101.121 33.44C102.699 32.1173 104.15 31.008 105.473 30.112C106.838 29.1733 107.926 28.6827 108.737 28.64C108.907 28.5973 109.057 28.576 109.185 28.576C109.355 28.576 109.505 28.576 109.633 28.576C110.87 28.576 111.723 28.9173 112.193 29.6C112.406 29.9413 112.534 30.3253 112.577 30.752C112.619 31.136 112.641 31.52 112.641 31.904C112.641 32.5013 112.491 33.248 112.193 34.144C111.937 34.9973 111.638 35.8507 111.297 36.704C111.126 37.1307 110.955 37.536 110.785 37.92C110.614 38.304 110.465 38.6667 110.337 39.008C110.55 38.752 110.763 38.4747 110.977 38.176C111.233 37.8773 111.467 37.5787 111.681 37.28C112.235 36.5973 112.79 35.9147 113.345 35.232C113.942 34.5493 114.497 33.9947 115.009 33.568C115.905 32.8 116.63 32.416 117.185 32.416C117.355 32.416 117.526 32.4587 117.697 32.544C117.91 32.7147 118.059 32.9493 118.145 33.248C118.273 33.504 118.358 33.76 118.401 34.016C118.486 34.4 118.571 34.8907 118.657 35.488C118.785 36.0853 118.955 36.7467 119.169 37.472C119.382 38.1547 119.659 38.8373 120.001 39.52C120.385 40.2027 120.854 40.7787 121.409 41.248C121.878 41.7173 122.646 41.952 123.713 41.952C124.566 41.952 125.462 41.824 126.401 41.568C127.339 41.312 128.15 41.0133 128.833 40.672C130.582 39.8187 132.289 38.7947 133.953 37.6C135.617 36.4053 137.323 35.104 139.073 33.696L143.041 30.432C143.382 30.176 143.659 30.048 143.873 30.048C144.086 30.048 144.214 30.0907 144.257 30.176V30.304C144.257 30.432 144.235 30.5813 144.193 30.752C144.15 30.9227 144.043 31.1147 143.873 31.328C143.574 31.7547 143.126 32.3093 142.529 32.992C141.931 33.6747 141.185 34.4 140.289 35.168C139.307 35.9787 138.134 36.896 136.769 37.92C135.403 38.944 133.953 39.9253 132.417 40.864C130.923 41.8027 129.409 42.592 127.873 43.232C127.062 43.5307 126.273 43.7867 125.505 44C124.737 44.2133 123.99 44.32 123.265 44.32C121.601 44.32 120.278 43.9573 119.297 43.232C118.358 42.464 117.611 41.568 117.057 40.544C116.801 40.0747 116.566 39.584 116.353 39.072C116.182 38.5173 116.033 38.0053 115.905 37.536C115.819 37.1947 115.734 36.8747 115.649 36.576C115.606 36.2347 115.542 35.936 115.457 35.68C114.987 36.1067 114.518 36.6187 114.049 37.216C113.579 37.8133 113.11 38.4107 112.641 39.008C112.129 39.6907 111.659 40.3307 111.233 40.928C110.806 41.4827 110.465 41.9307 110.209 42.272C109.739 42.8693 109.163 43.168 108.481 43.168C108.011 43.168 107.606 42.976 107.265 42.592C106.966 42.208 106.881 41.6533 107.009 40.928C107.051 40.7147 107.115 40.4587 107.201 40.16C107.286 39.8613 107.371 39.5413 107.457 39.2C107.585 38.8587 107.713 38.5173 107.841 38.176C107.969 37.792 108.097 37.408 108.225 37.024C108.523 36.256 108.779 35.5093 108.993 34.784C109.249 34.016 109.398 33.376 109.441 32.864C109.483 32.6933 109.505 32.544 109.505 32.416C109.505 32.288 109.505 32.16 109.505 32.032C109.505 31.5627 109.419 31.264 109.249 31.136C109.121 30.9653 108.95 30.88 108.737 30.88C108.31 30.88 107.777 31.0507 107.137 31.392C106.497 31.6907 105.921 32.0107 105.409 32.352C104.939 32.6507 104.193 33.248 103.169 34.144C102.187 34.9973 101.099 35.9787 99.9048 37.088C98.7101 38.1547 97.5794 39.1787 96.5128 40.16C95.8301 40.8 95.1688 41.4613 94.5288 42.144C93.9314 42.784 93.3768 43.3813 92.8648 43.936C92.3101 44.5333 91.8408 45.024 91.4568 45.408C91.0728 45.792 90.7954 45.984 90.6248 45.984ZM151.396 22.88C150.884 22.88 150.521 22.752 150.308 22.496C150.094 22.1973 149.988 21.8347 149.988 21.408C149.988 20.9387 150.073 20.5333 150.244 20.192C150.414 19.8507 150.862 19.552 151.588 19.296C152.356 19.04 153.166 18.848 154.02 18.72C154.916 18.592 155.598 18.528 156.068 18.528C156.58 18.528 156.836 18.6347 156.836 18.848C156.836 19.0187 156.729 19.168 156.516 19.296C156.43 19.3387 156.302 19.4027 156.132 19.488C156.004 19.5733 155.833 19.6587 155.62 19.744C155.321 19.872 154.98 20.0427 154.596 20.256C154.254 20.4267 154.041 20.64 153.956 20.896C153.7 21.4507 153.337 21.92 152.868 22.304C152.398 22.688 151.908 22.88 151.396 22.88ZM140.772 44.512C139.577 44.512 138.489 44.2773 137.508 43.808C136.569 43.3387 136.1 42.4427 136.1 41.12C136.1 39.84 136.398 38.6027 136.996 37.408C137.593 36.2133 138.34 35.0827 139.236 34.016C140.174 32.9493 141.07 32.0107 141.924 31.2C142.649 30.56 143.225 30.048 143.652 29.664C143.609 29.6213 143.588 29.536 143.588 29.408C143.588 29.0667 143.737 28.7253 144.036 28.384C144.505 27.7013 145.273 27.1253 146.34 26.656C146.596 26.5707 146.852 26.528 147.108 26.528C147.662 26.528 148.217 26.656 148.772 26.912C149.326 27.1253 149.604 27.488 149.604 28C149.604 28.2987 149.497 28.576 149.284 28.832C149.07 29.088 148.878 29.28 148.708 29.408C148.366 29.664 147.833 30.112 147.108 30.752C146.425 31.3493 145.678 32.0533 144.868 32.864C144.057 33.632 143.268 34.4 142.5 35.168C141.774 35.8933 141.22 36.512 140.836 37.024C139.342 38.944 138.596 40.3947 138.596 41.376C138.596 41.8027 138.766 42.1653 139.108 42.464C139.492 42.72 140.153 42.848 141.092 42.848C142.585 42.848 144.057 42.6133 145.508 42.144C147.001 41.632 148.366 41.056 149.604 40.416C150.628 39.904 151.588 39.328 152.484 38.688C153.422 38.048 154.34 37.3867 155.236 36.704C156.132 35.9787 157.028 35.232 157.924 34.464C158.862 33.696 159.801 32.928 160.74 32.16C160.868 32.1173 161.017 32.096 161.188 32.096C161.529 32.096 161.7 32.2453 161.7 32.544C161.7 32.8 161.593 33.0347 161.38 33.248C161.124 33.5893 160.59 34.144 159.78 34.912C158.969 35.68 157.966 36.5547 156.772 37.536C155.62 38.5173 154.318 39.4773 152.868 40.416C151.417 41.3547 149.924 42.1653 148.388 42.848C147.577 43.1893 146.446 43.552 144.996 43.936C143.545 44.32 142.137 44.512 140.772 44.512ZM166.151 44.128C165.212 44.128 164.273 44 163.335 43.744C162.396 43.4453 161.521 42.976 160.711 42.336C159.943 41.7387 159.388 41.0773 159.047 40.352C158.705 39.6267 158.535 38.8587 158.535 38.048C158.535 36.5973 159.004 35.1467 159.943 33.696C160.924 32.2453 162.119 30.9013 163.527 29.664C164.935 28.384 166.3 27.36 167.623 26.592C168.135 26.2933 168.753 26.08 169.479 25.952C170.247 25.7813 170.972 25.696 171.655 25.696C171.911 25.696 172.167 25.696 172.423 25.696C172.679 25.696 172.892 25.7387 173.063 25.824C174.172 26.1227 174.983 26.592 175.495 27.232C176.049 27.8293 176.327 28.5333 176.327 29.344C176.327 30.5387 175.921 31.5413 175.111 32.352C174.343 33.12 173.361 33.76 172.167 34.272C171.015 34.7413 169.841 35.104 168.647 35.36C167.452 35.616 166.428 35.7867 165.575 35.872C165.276 35.9147 164.977 35.936 164.679 35.936C164.423 35.936 164.145 35.936 163.847 35.936C163.548 35.936 163.228 35.936 162.887 35.936C162.588 35.8933 162.332 35.8507 162.119 35.808C161.82 36.2773 161.564 36.7467 161.351 37.216C161.137 37.6853 160.988 38.1333 160.903 38.56C160.86 38.688 160.839 38.816 160.839 38.944C160.839 39.072 160.839 39.2 160.839 39.328C160.839 40.1387 161.18 40.864 161.863 41.504C162.545 42.1013 163.74 42.4 165.447 42.4C167.153 42.4 168.945 42.0373 170.823 41.312C172.7 40.5867 174.556 39.648 176.391 38.496C178.268 37.3013 180.039 36.064 181.703 34.784C183.409 33.4613 184.924 32.224 186.247 31.072C186.46 30.944 186.631 30.88 186.759 30.88C187.143 30.88 187.335 31.0507 187.335 31.392C187.335 31.6053 187.249 31.8187 187.079 32.032C186.609 32.7147 185.799 33.5467 184.647 34.528C183.537 35.4667 182.3 36.448 180.935 37.472C179.612 38.4533 178.396 39.328 177.287 40.096C176.177 40.8213 175.409 41.312 174.983 41.568C173.703 42.208 172.295 42.8053 170.759 43.36C169.223 43.872 167.687 44.128 166.151 44.128ZM163.015 34.592C163.825 34.6773 164.743 34.592 165.767 34.336C166.407 34.208 167.196 33.9947 168.135 33.696C169.073 33.3973 170.012 33.0133 170.951 32.544C171.889 32.0747 172.679 31.52 173.319 30.88C173.959 30.24 174.279 29.536 174.279 28.768C174.279 28.2133 173.873 27.936 173.063 27.936C172.764 27.936 172.38 28 171.911 28.128C171.441 28.2133 170.908 28.4053 170.311 28.704C169.116 29.2587 167.836 30.0693 166.471 31.136C165.148 32.2027 163.996 33.3547 163.015 34.592ZM173.191 21.856C172.209 21.4293 171.036 20.8747 169.671 20.192C168.305 19.5093 167.217 18.976 166.407 18.592L166.279 18.528C166.065 18.144 166.236 17.7173 166.791 17.248C167.388 16.7787 167.921 16.5867 168.391 16.672L168.519 16.736C169.244 17.2907 170.119 17.9307 171.143 18.656C172.167 19.3387 173.212 20 174.279 20.64C174.62 20.8107 174.919 21.0027 175.175 21.216C175.431 21.4293 175.559 21.6213 175.559 21.792C175.559 22.1333 175.324 22.304 174.855 22.304C174.641 22.304 174.364 22.2613 174.023 22.176C173.724 22.048 173.447 21.9413 173.191 21.856ZM189.832 55.2C187.87 55.2 186.44 54.7093 185.544 53.728C184.648 52.7467 184.2 51.488 184.2 49.952C184.2 48.288 184.606 46.4107 185.416 44.32C186.27 42.2293 187.379 40.1173 188.744 37.984C190.152 35.808 191.667 33.8027 193.288 31.968C193.075 32.0107 192.862 32.032 192.648 32.032C192.435 32.032 192.222 32.032 192.008 32.032C190.558 32.032 189.342 31.6907 188.36 31.008C187.934 31.648 187.336 32.352 186.568 33.12C185.8 33.888 185.054 34.5707 184.328 35.168C182.536 36.6613 180.638 38.0907 178.632 39.456C176.627 40.8213 174.643 41.952 172.68 42.848C170.718 43.744 168.883 44.256 167.176 44.384C167.048 44.384 166.878 44.3627 166.664 44.32C166.408 44.2773 166.216 44.192 166.088 44.064C165.918 43.936 165.875 43.808 165.96 43.68C166.046 43.5093 166.131 43.4027 166.216 43.36C166.344 43.2747 166.494 43.2107 166.664 43.168C166.835 43.0827 167.07 43.0187 167.368 42.976C168.819 42.6773 170.419 42.08 172.168 41.184C173.918 40.2453 175.731 39.136 177.608 37.856C179.528 36.5333 181.363 35.1467 183.112 33.696C183.838 33.1413 184.584 32.5227 185.352 31.84C186.12 31.1147 186.803 30.4533 187.4 29.856C186.974 29.1733 186.76 28.448 186.76 27.68C186.76 26.656 187.038 25.632 187.592 24.608C188.147 23.584 188.851 22.6453 189.704 21.792C190.558 20.896 191.475 20.192 192.456 19.68C193.438 19.1253 194.355 18.848 195.208 18.848C195.678 18.848 195.998 18.9547 196.168 19.168C196.382 19.3813 196.488 19.616 196.488 19.872C196.488 20.4267 196.296 20.8533 195.912 21.152C195.614 21.408 195.123 21.8773 194.44 22.56C193.8 23.2427 193.096 24.0107 192.328 24.864C191.56 25.6747 190.856 26.4853 190.216 27.296C189.619 28.064 189.214 28.704 189 29.216C189.128 29.4293 189.32 29.6213 189.576 29.792C189.875 29.9627 190.366 30.048 191.048 30.048C192.072 30.048 193.075 29.8347 194.056 29.408C195.038 28.9813 195.955 28.4693 196.808 27.872C197.064 27.744 197.342 27.68 197.64 27.68C198.11 27.68 198.558 27.7867 198.984 28C199.454 28.1707 199.774 28.3627 199.944 28.576C199.987 28.6187 200.008 28.704 200.008 28.832C200.008 29.2587 199.774 29.7707 199.304 30.368C199.048 30.6667 198.75 30.9867 198.408 31.328C198.11 31.6693 197.811 32.0107 197.512 32.352C196.318 33.6747 195.08 35.168 193.8 36.832C192.563 38.4533 191.432 40.1173 190.408 41.824C189.384 43.488 188.552 45.0667 187.912 46.56C187.272 48.096 186.952 49.4187 186.952 50.528C186.952 51.3387 187.166 51.9787 187.592 52.448C188.062 52.96 188.851 53.216 189.96 53.216C190.174 53.216 190.408 53.1947 190.664 53.152C190.963 53.152 191.262 53.1307 191.56 53.088C192.627 52.9173 193.843 52.5333 195.208 51.936C196.574 51.3387 197.939 50.6347 199.304 49.824C200.67 49.056 201.843 48.352 202.824 47.712C202.91 47.6267 203.059 47.584 203.272 47.584C203.571 47.584 203.742 47.712 203.784 47.968V48.096C203.784 48.3093 203.656 48.544 203.4 48.8C203.315 48.8853 203.166 49.0133 202.952 49.184C202.739 49.3973 202.462 49.6533 202.12 49.952C200.755 51.1467 199.24 52.192 197.576 53.088C195.912 54.0267 194.163 54.6453 192.328 54.944C191.902 54.9867 191.475 55.0293 191.048 55.072C190.622 55.1573 190.216 55.2 189.832 55.2ZM213.471 44.832C212.489 44.832 211.551 44.7253 210.655 44.512C209.759 44.2987 208.948 43.9787 208.223 43.552C206.345 42.3573 205.407 40.7787 205.407 38.816C205.407 37.28 205.919 35.7227 206.943 34.144C208.009 32.5227 209.375 30.9867 211.039 29.536C212.703 28.0853 214.452 26.8907 216.287 25.952C217.396 25.3547 218.505 24.928 219.615 24.672C220.724 24.416 221.705 24.288 222.559 24.288C224.052 24.288 225.033 24.5867 225.503 25.184C226.015 25.7387 226.271 26.4 226.271 27.168C226.271 27.9787 226.015 28.768 225.503 29.536C224.991 30.2613 224.265 30.9867 223.327 31.712C221.705 33.0347 219.487 34.208 216.671 35.232C213.897 36.256 211.039 36.9813 208.095 37.408C207.668 38.2613 207.455 39.0507 207.455 39.776C207.54 40.9707 208.159 41.824 209.311 42.336C210.505 42.8053 211.828 43.04 213.279 43.04C213.791 43.04 214.281 43.0187 214.751 42.976C215.22 42.9333 215.668 42.8693 216.095 42.784C218.228 42.3573 220.404 41.5893 222.623 40.48C224.884 39.3707 227.06 38.0907 229.151 36.64C231.241 35.1893 233.119 33.7387 234.783 32.288C235.039 32.2027 235.209 32.16 235.295 32.16C235.593 32.16 235.743 32.3093 235.743 32.608C235.743 32.8213 235.657 33.0347 235.487 33.248C235.188 33.76 234.569 34.4213 233.631 35.232C232.735 36.0427 231.711 36.8747 230.559 37.728C229.407 38.5387 228.276 39.328 227.167 40.096C226.1 40.8213 225.204 41.376 224.479 41.76C222.943 42.6133 221.193 43.3387 219.231 43.936C217.268 44.5333 215.348 44.832 213.471 44.832ZM209.183 35.616C210.548 35.2747 212.127 34.848 213.919 34.336C215.711 33.7813 217.417 33.1413 219.039 32.416C220.66 31.648 221.876 30.816 222.687 29.92C223.028 29.5787 223.263 29.2373 223.391 28.896C223.519 28.512 223.583 28.192 223.583 27.936C223.583 27.7227 223.497 27.5307 223.327 27.36C223.199 27.1893 222.772 27.104 222.047 27.104C221.023 27.104 219.7 27.5307 218.079 28.384C216.457 29.1947 214.836 30.2613 213.215 31.584C211.636 32.864 210.292 34.208 209.183 35.616Z" fill="white"/>
</svg>
